<?xml version="1.0" encoding="utf-8"?>
<!-- Generator: Adobe Illustrator 24.0.2, SVG Export Plug-In . SVG Version: 6.00 Build 0)  -->
<svg version="1.1" xmlns="http://www.w3.org/2000/svg" xmlns:xlink="http://www.w3.org/1999/xlink" x="0px" y="0px"
	 viewBox="0 0 4861.3 875.5" style="enable-background:new 0 0 4861.3 875.5;" xml:space="preserve">
<style type="text/css">
	.st0{fill:url(#SVGID_1_);}
	.st1{fill:url(#SVGID_2_);}
	.st2{fill:url(#SVGID_3_);}
	.st3{fill:url(#SVGID_4_);}
	.st4{fill:url(#SVGID_5_);}
	.st5{fill:url(#SVGID_6_);}
	.st6{fill:url(#SVGID_7_);}
	.st7{fill:url(#SVGID_8_);}
	.st8{fill:url(#SVGID_9_);}
	.st9{fill:url(#SVGID_10_);}
	.st10{fill:url(#SVGID_11_);}
	.st11{fill:url(#SVGID_12_);}
	.st12{fill:url(#SVGID_13_);}
	.st13{fill:url(#SVGID_14_);}
	.st14{fill:url(#SVGID_15_);}
	.st15{fill:url(#SVGID_16_);}
	.st16{fill:#2D6995;}
	.st17{fill:url(#SVGID_17_);}
	.st18{fill:url(#SVGID_18_);}
	.st19{fill:url(#SVGID_19_);}
	.st20{fill:url(#SVGID_20_);}
	.st21{fill:url(#SVGID_21_);}
	.st22{fill:url(#SVGID_22_);}
	.st23{fill:url(#SVGID_23_);}
	.st24{fill:url(#SVGID_24_);}
	.st25{fill:url(#SVGID_25_);}
	.st26{fill:url(#SVGID_26_);}
	.st27{fill:url(#SVGID_27_);}
	.st28{fill:url(#SVGID_28_);}
	.st29{fill:url(#SVGID_29_);}
	.st30{fill:url(#SVGID_30_);}
	.st31{fill:url(#SVGID_31_);}
	.st32{fill:#767F84;}
	.st33{fill:url(#SVGID_32_);}
	.st34{fill:url(#SVGID_33_);}
	.st35{fill:url(#SVGID_34_);}
	.st36{fill:url(#SVGID_35_);}
	.st37{fill:url(#SVGID_36_);}
	.st38{fill:url(#SVGID_37_);}
	.st39{fill:url(#SVGID_38_);}
	.st40{fill:url(#SVGID_39_);}
	.st41{fill:url(#SVGID_40_);}
	.st42{fill:url(#SVGID_41_);}
	.st43{fill:url(#SVGID_42_);}
	.st44{fill:url(#SVGID_43_);}
	.st45{display:none;}
	.st46{display:inline;}
	.st47{fill:#FFFFFF;}
	.st48{font-family:'Garamond';}
	.st49{font-size:186.9393px;}
	.st50{letter-spacing:18;}
	.st51{display:inline;fill:#FFFFFF;stroke:#FFFFFF;stroke-miterlimit:10;}
	.st52{fill:#505352;}
</style>
<g id="Bottom_Gradient_Fill">
	<linearGradient id="SVGID_1_" gradientUnits="userSpaceOnUse" x1="343.0827" y1="679.8642" x2="632.064" y2="679.8642">
		<stop  offset="8.379889e-03" style="stop-color:#0AB7E9"/>
		<stop  offset="1" style="stop-color:#14B7E8"/>
	</linearGradient>
	<path class="st0" d="M343.3,609.9c5.6,6.2,11,12.5,16.7,18.6c24.5,26,51.6,48.7,83.4,65.4c13.9,7.3,28.4,13.2,44,16
		c6.6,1.2,13.3,1.5,20.1,0.4c14.7-2.4,23-11.2,24.7-26c1.2-10.5-0.1-20.8-2.1-31c-0.8-4.1,0.2-7.6,2.8-10.6
		c5.9-6.8,13.4-10,22.5-9.4c3.7,0.2,6.8,1.7,9,4.9c1.1,1.7,2.7,2.6,4.6,1.5c1.9-1.1,2.1-3.1,1.2-4.8c-3.3-6.5-0.6-11.7,3.7-16.4
		c3.9-4.2,8.8-7,14.5-7.7c4.3-0.6,8.2,0.1,10.9,4.1c1.5,2.2,4.1,1.9,5.1-0.5c0.6-1.4,0.4-3.2,0.5-4.8c0.1-2.5-0.3-5.1,0.3-7.4
		c2.2-7.3,6.8-12.9,13.6-16.5c6.3-3.3,10.5-1.3,11.4,5.8c0.8,6,1.1,12.2,1.4,18.3c1,27.9-0.1,55.6-6.5,82.9
		c-4.2,17.7-10.4,34.7-21.3,49.5c-18.8,25.6-44.3,35.9-75.5,32.7c-25.9-2.7-48.8-13.4-70.3-27.4c-23.9-15.6-44.3-35-62.4-56.9
		c-19.9-24-37.5-49.6-51.4-77.6c-0.5-0.9-0.9-1.9-1.3-2.8C343.2,610.1,343.2,610,343.3,609.9z"/>
	<linearGradient id="SVGID_2_" gradientUnits="userSpaceOnUse" x1="489.4505" y1="528.9604" x2="533.3187" y2="528.9604">
		<stop  offset="8.379889e-03" style="stop-color:#AEDDEA"/>
		<stop  offset="1" style="stop-color:#14B7E8"/>
	</linearGradient>
	<path class="st1" d="M511.2,508.1c12.2,0.1,22.1,9.6,22.1,21.3c0,11.6-9.6,20.6-21.7,20.5c-12.2-0.1-22.2-9.7-22.2-21.3
		C489.5,517.1,499.2,508,511.2,508.1z"/>
	<linearGradient id="SVGID_3_" gradientUnits="userSpaceOnUse" x1="467.2527" y1="483.754" x2="509.5385" y2="483.754">
		<stop  offset="8.379889e-03" style="stop-color:#AEDDEA"/>
		<stop  offset="1" style="stop-color:#14B7E8"/>
	</linearGradient>
	<path class="st2" d="M491.4,464.4c6.7,0.2,13.1,3,16.5,10.4c3.3,7.3,1.5,14-3.5,19.9c-6.2,7.4-16.8,10.3-25.5,7.1
		c-9.5-3.5-14-13.1-10.4-22.6C471.7,470.6,480.6,464.6,491.4,464.4z"/>
	<linearGradient id="SVGID_4_" gradientUnits="userSpaceOnUse" x1="511.3344" y1="572.2326" x2="551.6373" y2="572.2326">
		<stop  offset="8.379889e-03" style="stop-color:#AEDDEA"/>
		<stop  offset="1" style="stop-color:#14B7E8"/>
	</linearGradient>
	<path class="st3" d="M527.8,590.8c-5.5-0.2-11.3-2.8-14.5-9.3c-3.3-6.5-2.2-12.8,2.1-18.4c5.5-7.3,13-10.5,22.2-9
		c11.4,1.9,17.2,13.1,12.5,23.7C546.5,585.6,538.2,590.8,527.8,590.8z"/>
	<linearGradient id="SVGID_5_" gradientUnits="userSpaceOnUse" x1="537.3885" y1="512.4786" x2="574.6431" y2="512.4786">
		<stop  offset="8.379889e-03" style="stop-color:#AEDDEA"/>
		<stop  offset="1" style="stop-color:#14B7E8"/>
	</linearGradient>
	<path class="st4" d="M556.3,530.3c-10.5,0-18.9-8.2-18.9-18.2c0.1-9.7,8.2-17.4,18.4-17.4c10.4,0,18.9,8.2,18.8,18.3
		C574.6,522.7,566.5,530.3,556.3,530.3z"/>
	<linearGradient id="SVGID_6_" gradientUnits="userSpaceOnUse" x1="495.3644" y1="440.0172" x2="535.9011" y2="440.0172">
		<stop  offset="8.379889e-03" style="stop-color:#AEDDEA"/>
		<stop  offset="1" style="stop-color:#14B7E8"/>
	</linearGradient>
	<path class="st5" d="M508.8,455.7c-1.8-0.5-5-1.1-7.8-2.4c-4.8-2.4-6.7-7.3-5-12.5c0.5-1.6,1.3-3.2,2.2-4.6
		c5.5-8.4,17.8-13.4,27.6-11.3c9.3,2,13,10.2,7.8,18.2C528.1,451.4,519.8,454.9,508.8,455.7z"/>
	<linearGradient id="SVGID_7_" gradientUnits="userSpaceOnUse" x1="555.2467" y1="551.5395" x2="590.502" y2="551.5395">
		<stop  offset="8.379889e-03" style="stop-color:#AEDDEA"/>
		<stop  offset="1" style="stop-color:#14B7E8"/>
	</linearGradient>
	<path class="st6" d="M555.2,555.9c0.2-11.3,11.2-22.2,22.3-22.1c7.4,0.1,12.5,5,13,12.3c0.7,11.4-11.1,23.6-22.5,23.1
		C560.3,569,555.1,563.5,555.2,555.9z"/>
	<linearGradient id="SVGID_8_" gradientUnits="userSpaceOnUse" x1="555.9847" y1="455.8926" x2="590.8461" y2="455.8926">
		<stop  offset="8.379889e-03" style="stop-color:#AEDDEA"/>
		<stop  offset="1" style="stop-color:#14B7E8"/>
	</linearGradient>
	<path class="st7" d="M556,455.8c0-9.5,7.7-17.1,17.4-17.1c9.7,0,17.5,7.8,17.5,17.3c0,9.5-7.8,17.1-17.4,17.1
		C563.7,473,556,465.3,556,455.8z"/>
	<linearGradient id="SVGID_9_" gradientUnits="userSpaceOnUse" x1="523.9289" y1="612.9955" x2="559.0368" y2="612.9955">
		<stop  offset="8.379889e-03" style="stop-color:#0AB7E9"/>
		<stop  offset="1" style="stop-color:#14B7E8"/>
	</linearGradient>
	<path class="st8" d="M536.6,630c-8.5,0-13.7-6.1-12.5-14.6c1.5-10.3,12.1-19.5,22.4-19.4c8.1,0,13.3,5.9,12.5,14
		C557.8,620.5,547.1,630,536.6,630z"/>
	<linearGradient id="SVGID_10_" gradientUnits="userSpaceOnUse" x1="577.2445" y1="491.3063" x2="608.6888" y2="491.3063">
		<stop  offset="8.379889e-03" style="stop-color:#AEDDEA"/>
		<stop  offset="1" style="stop-color:#14B7E8"/>
	</linearGradient>
	<path class="st9" d="M608.7,491.1c0,9.1-7.2,16.7-15.9,16.6c-8.7,0-15.6-7.2-15.5-16.2c0-9.3,7.3-16.7,16.2-16.6
		C602,475,608.7,482.1,608.7,491.1z"/>
	<linearGradient id="SVGID_11_" gradientUnits="userSpaceOnUse" x1="565.7308" y1="590.494" x2="598.324" y2="590.494">
		<stop  offset="8.379889e-03" style="stop-color:#0AB7E9"/>
		<stop  offset="1" style="stop-color:#14B7E8"/>
	</linearGradient>
	<path class="st10" d="M577.7,606.3c-8.2,0.1-13-5.7-11.7-13.9c1.4-9.3,11.4-17.8,20.8-17.7c7.5,0.1,12.3,5.5,11.5,13.1
		C597.1,597.4,587.3,606.2,577.7,606.3z"/>
	<linearGradient id="SVGID_12_" gradientUnits="userSpaceOnUse" x1="585.3588" y1="530.6686" x2="612.1155" y2="530.6686">
		<stop  offset="8.379889e-03" style="stop-color:#AEDDEA"/>
		<stop  offset="1" style="stop-color:#14B7E8"/>
	</linearGradient>
	<path class="st11" d="M612.1,527.9c-0.3,6.6-1.9,11.5-5.8,15.4c-6.5,6.6-15.6,4.9-19.4-3.5c-3.3-7.3-1.1-17.2,4.9-22.5
		c6.7-5.9,15.3-4,18.7,4.3C611.5,523.9,611.8,526.5,612.1,527.9z"/>
	<linearGradient id="SVGID_13_" gradientUnits="userSpaceOnUse" x1="434.8387" y1="437.4372" x2="469.6741" y2="437.4372">
		<stop  offset="8.379889e-03" style="stop-color:#AEDDEA"/>
		<stop  offset="1" style="stop-color:#14B7E8"/>
	</linearGradient>
	<path class="st12" d="M458,424.4c4,0.3,8.8,1.1,10.9,6.2c2,5-0.5,9.1-4,12.5c-6,5.8-13.3,8.5-21.7,7c-8-1.4-10.8-8.3-6.4-15.2
		C440.8,428.9,449.4,424.4,458,424.4z"/>
	<linearGradient id="SVGID_14_" gradientUnits="userSpaceOnUse" x1="595.5136" y1="568.838" x2="620.8936" y2="568.838">
		<stop  offset="8.379889e-03" style="stop-color:#0AB7E9"/>
		<stop  offset="1" style="stop-color:#14B7E8"/>
	</linearGradient>
	<path class="st13" d="M595.5,571.2c0.3-5.6,3.3-11.6,9.1-15.8c3.3-2.4,7.1-3.4,10.9-1.4c3.7,1.9,5.1,5.5,5.3,9.5
		c0.3,7.2-2.3,13.2-7.7,17.8c-3.5,3-7.5,4.6-12.2,2.6C597.4,582.3,595.3,578,595.5,571.2z"/>
	<linearGradient id="SVGID_15_" gradientUnits="userSpaceOnUse" x1="504.4307" y1="403.2105" x2="533.0455" y2="403.2105">
		<stop  offset="8.379889e-03" style="stop-color:#AEDDEA"/>
		<stop  offset="1" style="stop-color:#14B7E8"/>
	</linearGradient>
	<path class="st14" d="M522.7,394.7c1.7,0.5,4.7,1.1,7.3,2.4c3.6,1.9,4,5.5,1.4,8.7c-4.7,5.7-17.3,7.7-23.7,3.8
		c-3.8-2.3-4.3-6-1.2-9.3C510.6,396.2,515.8,395.2,522.7,394.7z"/>
	<linearGradient id="SVGID_16_" gradientUnits="userSpaceOnUse" x1="449.9046" y1="400.8609" x2="476.682" y2="400.8609">
		<stop  offset="8.379889e-03" style="stop-color:#AEDDEA"/>
		<stop  offset="1" style="stop-color:#14B7E8"/>
	</linearGradient>
	<path class="st15" d="M456.4,408.2c-2.4-0.3-5.3,0-6.2-2.7c-1-2.8,1.3-4.6,3.3-6.1c5.2-3.9,11-6,17.5-5.9c2.2,0,4.8,0.2,5.6,2.8
		c0.7,2.4-1.1,4-2.8,5.4C468.7,405.9,462.8,407.8,456.4,408.2z"/>
</g>
<g id="Middle_Gradient_Fill">
	<path class="st16" d="M303.1,322.2c-8.1,1.6-16.2,3.1-24.2,5c-34.9,8.1-68.4,19.9-99.1,38.7c-14,8.6-27,18.5-37.7,31.2
		c-5.3,6.2-9.5,13.1-11.5,21.1c-2.9,11.1,0.3,20.4,8.9,27.8c8.3,7.2,18.2,11.7,28.5,15c6.5,2,9.9,6.2,10.9,12.6
		c1.2,7.1,0.2,13.9-3.9,20c-2.2,3.2-5,5.6-9.2,5.9c-1.7,0.1-3.4,0.7-3.5,2.7c-0.1,2.1,1.4,3.3,3.2,3.4c3.5,0.2,6.5,1.4,8.8,4.1
		c2.9,3.5,4.4,7.6,4.8,12c0.5,5.3-0.1,10.5-3.1,15.1c-1.8,2.8-4.3,4.3-7.6,4.7c-0.9,0.1-2.2,0.7-2.4,1.4c-0.3,0.9,0.1,2.2,0.6,3.1
		c0.5,0.8,1.5,1.6,2.4,1.8c8.5,2.6,12.1,9.3,14,17c0.9,3.5,0.8,7.4,0.2,10.9c-0.6,4.2-3.8,5.9-7.9,4.8c-2.3-0.6-4.6-1.4-6.7-2.5
		c-24.5-12.2-48-25.9-69.2-43.4c-16.1-13.2-30.3-28-40.4-46.5c-7.9-14.4-11.9-29.8-10.6-46.3c1.2-15,6.7-28.5,15.3-40.7
		c11.7-16.8,27.2-29.6,44.5-40.2c24-14.7,50.1-24.5,77.5-30.4c15.1-3.2,30.3-5.8,45.6-7.7c20.8-2.6,41.7-3.5,62.6-2.2
		c3.1,0.2,6.1,0.5,9.2,0.8C303,321.9,303.1,322,303.1,322.2z"/>
	<linearGradient id="SVGID_17_" gradientUnits="userSpaceOnUse" x1="264.8978" y1="508.1682" x2="308.264" y2="508.1682">
		<stop  offset="0" style="stop-color:#2B6894"/>
		<stop  offset="0.653" style="stop-color:#247EB6"/>
		<stop  offset="0.9944" style="stop-color:#1B89C6"/>
	</linearGradient>
	<path class="st17" d="M285.8,530c-11.3,0.2-20.7-8.8-20.9-20.1c-0.3-12.5,10-23.3,22.4-23.6c11.4-0.3,20.8,9.1,20.9,20.7
		C308.4,519.4,298.2,529.8,285.8,530z"/>
	<linearGradient id="SVGID_18_" gradientUnits="userSpaceOnUse" x1="317.6957" y1="510.9633" x2="356.4514" y2="510.9633">
		<stop  offset="0" style="stop-color:#2B6894"/>
		<stop  offset="0.653" style="stop-color:#247EB6"/>
		<stop  offset="0.9944" style="stop-color:#1B89C6"/>
	</linearGradient>
	<path class="st18" d="M317.7,511.5c0.6-6.7,2.7-12.4,7.4-17c8.1-7.9,20.6-6.8,27.2,2.5c5.8,8.2,5.6,20.3-0.7,28.2
		c-4.2,5.2-9.5,8.2-16.4,7.5c-7.7-0.8-12.6-5.5-15.4-12.5C318.7,517.4,318.4,514.4,317.7,511.5z"/>
	<linearGradient id="SVGID_19_" gradientUnits="userSpaceOnUse" x1="220.6345" y1="503.8887" x2="257.5139" y2="503.8887">
		<stop  offset="0" style="stop-color:#2B6894"/>
		<stop  offset="0.653" style="stop-color:#247EB6"/>
		<stop  offset="0.9944" style="stop-color:#1B89C6"/>
	</linearGradient>
	<path class="st19" d="M257.5,503.7c-0.2,5.3-1.7,10-5,14.1c-8.5,10.5-23.6,8.7-29.5-3.6c-3.3-6.9-3.1-13.8,0.2-20.6
		c3.7-7.4,10.7-11.3,18.5-10.4c6.6,0.8,13,6.9,14.9,14.4C257.1,499.6,257.2,501.7,257.5,503.7z"/>
	<linearGradient id="SVGID_20_" gradientUnits="userSpaceOnUse" x1="259.9323" y1="555.0524" x2="296.9541" y2="555.0524">
		<stop  offset="0" style="stop-color:#2B6894"/>
		<stop  offset="0.653" style="stop-color:#247EB6"/>
		<stop  offset="0.9944" style="stop-color:#1B89C6"/>
	</linearGradient>
	<path class="st20" d="M279.2,536.4c9.8,0,17.7,7.8,17.8,17.7c0.1,10.5-8.9,19.6-19.3,19.6c-9.8,0-17.6-7.8-17.7-17.7
		C259.9,545.5,268.8,536.4,279.2,536.4z"/>
	<linearGradient id="SVGID_21_" gradientUnits="userSpaceOnUse" x1="346.6939" y1="556.5447" x2="376.8523" y2="556.5447">
		<stop  offset="0" style="stop-color:#2B6894"/>
		<stop  offset="0.653" style="stop-color:#247EB6"/>
		<stop  offset="0.9944" style="stop-color:#1B89C6"/>
	</linearGradient>
	<path class="st21" d="M376.9,554.5c-0.7,6.6-2.4,12.6-6.4,17.7c-6.6,8.4-16.5,7.3-21.2-2.2c-4.5-9-2.8-22.1,3.8-29.6
		c6.8-7.9,16.5-6.7,20.8,2.8C375.3,546.7,375.8,550.7,376.9,554.5z"/>
	<linearGradient id="SVGID_22_" gradientUnits="userSpaceOnUse" x1="219.9456" y1="550.0125" x2="252.1893" y2="550.0125">
		<stop  offset="0" style="stop-color:#2B6894"/>
		<stop  offset="0.653" style="stop-color:#247EB6"/>
		<stop  offset="0.9944" style="stop-color:#1B89C6"/>
	</linearGradient>
	<path class="st22" d="M219.9,547.2c0.7-2.7,1-5.6,2-8.1c3.7-9.1,13.4-11.6,21.2-5.5c7.3,5.7,10.8,16.6,8.1,25.5
		c-3.4,11.3-14.9,14.4-23.5,6.3C222.7,560.4,220.3,554.3,219.9,547.2z"/>
	<linearGradient id="SVGID_23_" gradientUnits="userSpaceOnUse" x1="301.0881" y1="598.4961" x2="336.3166" y2="598.4961">
		<stop  offset="0" style="stop-color:#2B6894"/>
		<stop  offset="0.653" style="stop-color:#247EB6"/>
		<stop  offset="0.9944" style="stop-color:#1B89C6"/>
	</linearGradient>
	<path class="st23" d="M318.2,616.1c-9.7-0.1-17.2-7.9-17.2-17.8c0.1-9.7,8.3-17.5,18.3-17.4c9.3,0.1,17,8,16.9,17.5
		C336.3,608.2,328.1,616.2,318.2,616.1z"/>
	<linearGradient id="SVGID_24_" gradientUnits="userSpaceOnUse" x1="183.5718" y1="492.0027" x2="214.0677" y2="492.0027">
		<stop  offset="0" style="stop-color:#2B6894"/>
		<stop  offset="0.653" style="stop-color:#247EB6"/>
		<stop  offset="0.9944" style="stop-color:#1B89C6"/>
	</linearGradient>
	<path class="st24" d="M183.6,489.7c-0.1-4,0.8-7.8,3-11.3c4.1-6.5,11.7-8.1,18.1-3.7c8.9,6.2,12.2,20.7,6.9,30.1
		c-4.2,7.4-12.4,9.2-19.1,4C186.2,504,183.7,497.3,183.6,489.7z"/>
	<linearGradient id="SVGID_25_" gradientUnits="userSpaceOnUse" x1="261.7996" y1="597.6971" x2="294.6311" y2="597.6971">
		<stop  offset="0" style="stop-color:#2B6894"/>
		<stop  offset="0.653" style="stop-color:#247EB6"/>
		<stop  offset="0.9944" style="stop-color:#1B89C6"/>
	</linearGradient>
	<path class="st25" d="M294.6,598.4c0,8.8-6.9,15.7-15.8,15.6c-9.3,0-17.1-7.9-17.1-17.1c0-8.8,6.8-15.5,15.8-15.5
		C287,581.4,294.6,589,294.6,598.4z"/>
	<linearGradient id="SVGID_26_" gradientUnits="userSpaceOnUse" x1="183.0497" y1="538.325" x2="212.1828" y2="538.325">
		<stop  offset="0" style="stop-color:#2B6894"/>
		<stop  offset="0.653" style="stop-color:#247EB6"/>
		<stop  offset="0.9944" style="stop-color:#1B89C6"/>
	</linearGradient>
	<path class="st26" d="M183,536c1.1-3.4,1.8-7,3.5-10c3.8-6.8,11.6-7.9,17.6-3.1c7.3,5.9,10.1,17.5,6.3,26c-3.8,8.6-13,10.5-19.9,4
		C185.8,548.4,183.9,542.6,183,536z"/>
	<linearGradient id="SVGID_27_" gradientUnits="userSpaceOnUse" x1="221.5451" y1="589.8065" x2="252.9517" y2="589.8065">
		<stop  offset="0" style="stop-color:#2B6894"/>
		<stop  offset="0.653" style="stop-color:#247EB6"/>
		<stop  offset="0.9944" style="stop-color:#1B89C6"/>
	</linearGradient>
	<path class="st27" d="M233.7,574.5c9.6,0.1,18.7,8.8,19.2,18.5c0.4,8.5-7.3,14-16.2,11.4c-8.4-2.5-13.7-8.1-15-16.9
		C220.7,581.1,225.1,574.3,233.7,574.5z"/>
	<linearGradient id="SVGID_28_" gradientUnits="userSpaceOnUse" x1="382.4062" y1="502.9514" x2="407.8098" y2="502.9514">
		<stop  offset="0" style="stop-color:#2B6894"/>
		<stop  offset="0.653" style="stop-color:#247EB6"/>
		<stop  offset="0.9944" style="stop-color:#1B89C6"/>
	</linearGradient>
	<path class="st28" d="M383.1,504.8c0.1-6.2,1.7-11.9,6-16.5c5.4-5.7,12.4-4.7,16.2,2.1c4.4,8,2.6,21-3.8,27.5
		c-5.2,5.3-12.2,4.6-15.7-2c-1.7-3.3-2.4-7.2-3.5-10.8C382.6,504.9,382.9,504.9,383.1,504.8z"/>
	<linearGradient id="SVGID_29_" gradientUnits="userSpaceOnUse" x1="185.6981" y1="578.7859" x2="213.3483" y2="578.7859">
		<stop  offset="0" style="stop-color:#2B6894"/>
		<stop  offset="0.653" style="stop-color:#247EB6"/>
		<stop  offset="0.9944" style="stop-color:#1B89C6"/>
	</linearGradient>
	<path class="st29" d="M185.7,574.1c-0.1-8.7,6.6-13.1,14.6-9.8c7.9,3.2,13.5,12.3,13,20.8c-0.4,6.6-5.8,10.6-12.2,9
		C192.7,592,185.8,583.1,185.7,574.1z"/>
	<linearGradient id="SVGID_30_" gradientUnits="userSpaceOnUse" x1="382.1022" y1="577.6304" x2="401.0518" y2="577.6304">
		<stop  offset="0" style="stop-color:#2B6894"/>
		<stop  offset="0.653" style="stop-color:#247EB6"/>
		<stop  offset="0.9944" style="stop-color:#1B89C6"/>
	</linearGradient>
	<path class="st30" d="M382.1,582.1c0.3-6.2,2.6-11.7,7.4-16.1c2.1-1.9,4.7-3.1,7.5-2c2.8,1.2,3.7,3.9,3.9,6.8
		c0.5,6.3-1.5,11.8-5.5,16.7c-0.5,0.7-1.2,1.3-1.8,1.8c-2.2,1.7-4.6,3.2-7.5,1.9c-2.9-1.3-3.7-4.1-3.9-7
		C382.2,583.6,382.1,583,382.1,582.1z"/>
	<linearGradient id="SVGID_31_" gradientUnits="userSpaceOnUse" x1="414.8593" y1="530.9026" x2="428.8082" y2="530.9026">
		<stop  offset="0" style="stop-color:#2B6894"/>
		<stop  offset="0.653" style="stop-color:#247EB6"/>
		<stop  offset="0.9944" style="stop-color:#1B89C6"/>
	</linearGradient>
	<path class="st31" d="M428.8,527.4c-1.1,3.7-2.2,8-3.6,12.3c-0.5,1.5-1.8,3-3,4.1c-2.2,2.1-4.6,1.7-5.8-1.1
		c-0.8-1.9-1.4-4.1-1.5-6.2c-0.3-5.1,0.9-10.1,3.2-14.7c0.6-1.2,1.4-2.4,2.3-3.4c2.7-2.9,5.5-2.4,6.8,1.4
		C428,522,428.2,524.3,428.8,527.4z"/>
</g>
<g id="Top_Gradient_Fill">
	<path class="st32" d="M569.8,432.5c2.2-6.5,4.4-12.6,6.4-18.8c6.7-20.3,11.6-41,14.8-62.2c2.2-15.2,3.6-30.6,3.1-46
		c-0.5-17.5-2.4-34.8-8.7-51.3c-2.7-7.1-6.3-13.6-11.6-19c-7.8-7.9-17-10.3-27.7-7c-10.2,3.1-18.6,9.2-26.7,15.9
		c-0.1,0.1-0.3,0.2-0.4,0.3c-8.5,7.3-15.3,7.6-24.5,1c-5.1-3.6-9.2-8.2-10-14.7c-0.3-2,0.3-4.2,0.9-6.2c0.6-1.8,1-3.4-0.9-4.5
		c-1.9-1.1-3.5-0.2-4.5,1.4c-3.8,6-9.5,6.2-15.5,5.1c-5.9-1.1-10.8-4-14.6-8.7c-3.1-3.8-4.4-7.9-2-12.6c1-1.9-0.7-3.8-2.9-3.4
		c-1.2,0.2-2.6,0.7-3.5,1.5c-5,4.9-11.2,5-17.4,4.3c-4.7-0.5-9-2.1-12.7-5.2c-4.1-3.4-4.5-7.2-0.6-10.7c3.1-2.8,6.6-5.2,10.2-7.5
		c23.3-15,47.5-28.2,73.9-37.2c13.2-4.5,26.7-7.8,40.6-8.9c21.5-1.6,41.8,1.6,59.8,14.6c12.4,9,21.1,20.9,27.3,34.7
		c6.8,15.2,10,31.2,11.1,47.7c2.7,40.1-6.1,78.2-20.4,115.2c-10.7,27.9-23.8,54.6-40.7,79.3c-0.6,0.9-1.2,1.7-1.8,2.5
		C570.5,432.2,570.3,432.2,569.8,432.5z"/>
	<linearGradient id="SVGID_32_" gradientUnits="userSpaceOnUse" x1="395.8716" y1="324.7058" x2="438.6573" y2="324.7058">
		<stop  offset="0" style="stop-color:#B4B4B4"/>
		<stop  offset="0.8115" style="stop-color:#80878D"/>
		<stop  offset="0.9888" style="stop-color:#767F85"/>
	</linearGradient>
	<path class="st33" d="M416.6,302.6c12,0,22,10.3,22.1,22.7c0.1,12-9.1,21.5-20.8,21.5c-12,0-21.9-10.3-22-22.7
		C395.8,312.2,405,302.6,416.6,302.6z"/>
	<linearGradient id="SVGID_33_" gradientUnits="userSpaceOnUse" x1="424.5664" y1="285.7035" x2="464.9953" y2="285.7035">
		<stop  offset="0" style="stop-color:#B4B4B4"/>
		<stop  offset="0.8115" style="stop-color:#80878D"/>
		<stop  offset="0.9888" style="stop-color:#767F85"/>
	</linearGradient>
	<path class="st34" d="M447.2,304.9c-11.2,0-21-8.5-22.5-19.6c-1.3-9.3,6.2-18,16-18.8c9.6-0.7,19.2,5.3,22.8,14.2
		C468.5,293,460.4,304.9,447.2,304.9z"/>
	<linearGradient id="SVGID_34_" gradientUnits="userSpaceOnUse" x1="362.6073" y1="294.1964" x2="398.9997" y2="294.1964">
		<stop  offset="0" style="stop-color:#B4B4B4"/>
		<stop  offset="0.8115" style="stop-color:#80878D"/>
		<stop  offset="0.9888" style="stop-color:#767F85"/>
	</linearGradient>
	<path class="st35" d="M399,294.7c0,10.3-7.7,18.4-17.6,18.5c-10.1,0-18.8-8.9-18.8-19.4c0-10.2,7.7-18.2,17.2-18.5
		C389.7,274.9,399.2,283.8,399,294.7z"/>
	<linearGradient id="SVGID_35_" gradientUnits="userSpaceOnUse" x1="318.5642" y1="365.2239" x2="357.2259" y2="365.2239">
		<stop  offset="0" style="stop-color:#B4B4B4"/>
		<stop  offset="0.8115" style="stop-color:#80878D"/>
		<stop  offset="0.9888" style="stop-color:#767F85"/>
	</linearGradient>
	<path class="st36" d="M357.2,371.3c-0.1,6.8-4.7,11.1-12.1,11.4c-11.4,0.5-24.5-10.1-26.4-21.5c-1.3-7.6,4.4-13.7,12.7-13.5
		c10.7,0.2,22.5,9.4,25.1,19.8C356.9,368.8,357,370,357.2,371.3z"/>
	<linearGradient id="SVGID_36_" gradientUnits="userSpaceOnUse" x1="386.4458" y1="260.3424" x2="426.2462" y2="260.3424">
		<stop  offset="0" style="stop-color:#B4B4B4"/>
		<stop  offset="0.8115" style="stop-color:#80878D"/>
		<stop  offset="0.9888" style="stop-color:#767F85"/>
	</linearGradient>
	<path class="st37" d="M408.8,276.4c-7.1-0.5-13.3-2.8-18.1-8.1c-7.7-8.5-4.6-19.5,6.3-23c8.8-2.8,19.3,0.1,25.3,7.1
		c6.8,7.9,4.4,18.2-5.4,22C414.4,275.5,411.5,275.8,408.8,276.4z"/>
	<linearGradient id="SVGID_37_" gradientUnits="userSpaceOnUse" x1="305.5259" y1="307.1917" x2="340.5501" y2="307.1917">
		<stop  offset="0" style="stop-color:#B4B4B4"/>
		<stop  offset="0.8115" style="stop-color:#80878D"/>
		<stop  offset="0.9888" style="stop-color:#767F85"/>
	</linearGradient>
	<path class="st38" d="M340.6,307.4c0,9.7-7.6,17.6-17.2,17.6c-9.7,0.1-17.8-8.1-17.8-18c0-9.8,7.9-17.8,17.5-17.7
		C332.7,289.5,340.5,297.6,340.6,307.4z"/>
	<path class="st32" d="M478.5,272.3c-7.8-0.2-14.5-2.9-19.4-9.1c-6.8-8.7-2.7-19.3,8.1-21.4c8.7-1.7,16.4,0.7,22.7,6.8
		c4.1,4,6.4,8.9,4.3,14.7c-2.2,6-7.2,8.1-13.1,8.9C480.2,272.4,479.3,272.3,478.5,272.3z"/>
	<linearGradient id="SVGID_38_" gradientUnits="userSpaceOnUse" x1="327.4538" y1="272.6924" x2="360.7014" y2="272.6924">
		<stop  offset="0" style="stop-color:#B4B4B4"/>
		<stop  offset="0.8115" style="stop-color:#80878D"/>
		<stop  offset="0.9888" style="stop-color:#767F85"/>
	</linearGradient>
	<path class="st39" d="M360.7,272.2c0,9.1-7.9,16.7-17.3,16.6c-9.1-0.1-16-7.1-16-16.1c0-8.9,7.9-16.3,17.2-16.2
		C353.8,256.7,360.7,263.4,360.7,272.2z"/>
	<path class="st32" d="M431.3,218.3c9.1,0.4,15.5,3.1,20,9.5c5,7.1,2.4,15.2-5.6,18.3c-9.4,3.7-22.4-1-26.8-9.8
		c-3.2-6.4-1-13.2,5.6-16.1C427,219,429.9,218.7,431.3,218.3z"/>
	<linearGradient id="SVGID_39_" gradientUnits="userSpaceOnUse" x1="354.4656" y1="241.4441" x2="388.4019" y2="241.4441">
		<stop  offset="0" style="stop-color:#B4B4B4"/>
		<stop  offset="0.8115" style="stop-color:#80878D"/>
		<stop  offset="0.9888" style="stop-color:#767F85"/>
	</linearGradient>
	<path class="st40" d="M368.7,255.7c-3.2-1.2-6.6-1.9-9.4-3.7c-4.7-2.9-6-8.5-3.9-13.6c3.9-9.5,18.3-14.3,27.2-8.9
		c6.4,3.9,7.7,11.6,2.8,17.8c-4.2,5.3-9.8,7.6-16.4,7.7C368.9,255.2,368.8,255.4,368.7,255.7z"/>
	<linearGradient id="SVGID_40_" gradientUnits="userSpaceOnUse" x1="350.6956" y1="421.4641" x2="383.6736" y2="421.4641">
		<stop  offset="0" style="stop-color:#B4B4B4"/>
		<stop  offset="0.8115" style="stop-color:#80878D"/>
		<stop  offset="0.9888" style="stop-color:#767F85"/>
	</linearGradient>
	<path class="st41" d="M373.1,436.3c-10.1-0.2-20.6-9.2-22.2-19c-0.9-5.3,3-10.1,8.7-10.7c9.7-1,22,8.1,23.9,17.6
		C384.9,431.7,380.7,436.5,373.1,436.3z"/>
	<path class="st32" d="M399,226.1c-4.2-0.1-8.2-0.9-11.7-3.5c-5.3-3.9-6-10.1-1.6-14.9c6.1-6.7,19.3-7.9,26.6-2.5
		c5.7,4.3,6.1,10.8,0.9,15.7C409.3,224.7,404.3,225.9,399,226.1z"/>
	<linearGradient id="SVGID_41_" gradientUnits="userSpaceOnUse" x1="293.2994" y1="380.7468" x2="315.9211" y2="380.7468">
		<stop  offset="0" style="stop-color:#B4B4B4"/>
		<stop  offset="0.8115" style="stop-color:#80878D"/>
		<stop  offset="0.9888" style="stop-color:#767F85"/>
	</linearGradient>
	<path class="st42" d="M293.3,374.8c0-5.3,3.3-7.7,8.5-6.2c6.9,2,13.9,11.1,14.1,18.2c0.1,4.9-3.1,7.5-7.9,6.4
		C300.8,391.5,293.3,382.2,293.3,374.8z"/>
	<linearGradient id="SVGID_42_" gradientUnits="userSpaceOnUse" x1="318.3012" y1="430.1672" x2="341.832" y2="430.1672">
		<stop  offset="0" style="stop-color:#B4B4B4"/>
		<stop  offset="0.8115" style="stop-color:#80878D"/>
		<stop  offset="0.9888" style="stop-color:#767F85"/>
	</linearGradient>
	<path class="st43" d="M341.8,436.9c-0.2,2.7-1.9,4.4-4.7,3.7c-2.8-0.7-5.6-1.8-8-3.3c-4.8-3.1-9-7-10.6-12.8
		c-0.9-3.1,0.7-5.1,3.9-4.9c1.2,0.1,2.4,0.4,3.5,0.8c6.1,2.5,10.8,6.6,14.2,12.2C340.9,433.9,341.3,435.5,341.8,436.9z"/>
	<linearGradient id="SVGID_43_" gradientUnits="userSpaceOnUse" x1="368.5077" y1="367.1893" x2="410.4007" y2="367.1893">
		<stop  offset="0" style="stop-color:#B4B4B4"/>
		<stop  offset="0.8115" style="stop-color:#80878D"/>
		<stop  offset="0.9888" style="stop-color:#767F85"/>
	</linearGradient>
	<path class="st44" d="M387,347.2c13,0,23.8,10.9,23.4,23.5c-0.3,8.6-7,15.7-15.6,16.5c-13.4,1.3-25-8-26.2-21.3
		C367.6,354.7,376.7,346.8,387,347.2z"/>
</g>
<g id="All_White_Text" class="st45">
	<text transform="matrix(1 0 0 1 750.609 413.7391)" class="st46"><tspan x="0" y="0" class="st47 st48 st49 st50">CLINLAB </tspan><tspan x="-32.2" y="200" class="st47 st48 st49 st50">STAFFING</tspan></text>
</g>
<g id="All_White_Graphic" class="st45">
	<path class="st51" d="M343.3,609.9c5.6,6.2,11,12.5,16.7,18.6c24.5,26,51.6,48.7,83.4,65.4c13.9,7.3,28.4,13.2,44,16
		c6.6,1.2,13.3,1.5,20.1,0.4c14.7-2.4,23-11.2,24.7-26c1.2-10.5-0.1-20.8-2.1-31c-0.8-4.1,0.2-7.6,2.8-10.6
		c5.9-6.8,13.4-10,22.5-9.4c3.7,0.2,6.8,1.7,9,4.9c1.1,1.7,2.7,2.6,4.6,1.5c1.9-1.1,2.1-3.1,1.2-4.8c-3.3-6.5-0.6-11.7,3.7-16.4
		c3.9-4.2,8.8-7,14.5-7.7c4.3-0.6,8.2,0.1,10.9,4.1c1.5,2.2,4.1,1.9,5.1-0.5c0.6-1.4,0.4-3.2,0.5-4.8c0.1-2.5-0.3-5.1,0.3-7.4
		c2.2-7.3,6.8-12.9,13.6-16.5c6.3-3.3,10.5-1.3,11.4,5.8c0.8,6,1.1,12.2,1.4,18.3c1,27.9-0.1,55.6-6.5,82.9
		c-4.2,17.7-10.4,34.7-21.3,49.5c-18.8,25.6-44.3,35.9-75.5,32.7c-25.9-2.7-48.8-13.4-70.3-27.4c-23.9-15.6-44.3-35-62.4-56.9
		c-19.9-24-37.5-49.6-51.4-77.6c-0.5-0.9-0.9-1.9-1.3-2.8C343.2,610.1,343.2,610,343.3,609.9z"/>
	<path class="st51" d="M511.2,508.1c12.2,0.1,22.1,9.6,22.1,21.3c0,11.6-9.6,20.6-21.7,20.5c-12.2-0.1-22.2-9.7-22.2-21.3
		C489.5,517.1,499.2,508,511.2,508.1z"/>
	<path class="st51" d="M491.4,464.4c6.7,0.2,13.1,3,16.5,10.4c3.3,7.3,1.5,14-3.5,19.9c-6.2,7.4-16.8,10.3-25.5,7.1
		c-9.5-3.5-14-13.1-10.4-22.6C471.7,470.6,480.6,464.6,491.4,464.4z"/>
	<path class="st51" d="M527.8,590.8c-5.5-0.2-11.3-2.8-14.5-9.3c-3.3-6.5-2.2-12.8,2.1-18.4c5.5-7.3,13-10.5,22.2-9
		c11.4,1.9,17.2,13.1,12.5,23.7C546.5,585.6,538.2,590.8,527.8,590.8z"/>
	<path class="st51" d="M556.3,530.3c-10.5,0-18.9-8.2-18.9-18.2c0.1-9.7,8.2-17.4,18.4-17.4c10.4,0,18.9,8.2,18.8,18.3
		C574.6,522.7,566.5,530.3,556.3,530.3z"/>
	<path class="st51" d="M508.8,455.7c-1.8-0.5-5-1.1-7.8-2.4c-4.8-2.4-6.7-7.3-5-12.5c0.5-1.6,1.3-3.2,2.2-4.6
		c5.5-8.4,17.8-13.4,27.6-11.3c9.3,2,13,10.2,7.8,18.2C528.1,451.4,519.8,454.9,508.8,455.7z"/>
	<path class="st51" d="M555.2,555.9c0.2-11.3,11.2-22.2,22.3-22.1c7.4,0.1,12.5,5,13,12.3c0.7,11.4-11.1,23.6-22.5,23.1
		C560.3,569,555.1,563.5,555.2,555.9z"/>
	<path class="st51" d="M556,455.8c0-9.5,7.7-17.1,17.4-17.1c9.7,0,17.5,7.8,17.5,17.3c0,9.5-7.8,17.1-17.4,17.1
		C563.7,473,556,465.3,556,455.8z"/>
	<path class="st51" d="M536.6,630c-8.5,0-13.7-6.1-12.5-14.6c1.5-10.3,12.1-19.5,22.4-19.4c8.1,0,13.3,5.9,12.5,14
		C557.8,620.5,547.1,630,536.6,630z"/>
	<path class="st51" d="M608.7,491.1c0,9.1-7.2,16.7-15.9,16.6c-8.7,0-15.6-7.2-15.5-16.2c0-9.3,7.3-16.7,16.2-16.6
		C602,475,608.7,482.1,608.7,491.1z"/>
	<path class="st51" d="M577.7,606.3c-8.2,0.1-13-5.7-11.7-13.9c1.4-9.3,11.4-17.8,20.8-17.7c7.5,0.1,12.3,5.5,11.5,13.1
		C597.1,597.4,587.3,606.2,577.7,606.3z"/>
	<path class="st51" d="M612.1,527.9c-0.3,6.6-1.9,11.5-5.8,15.4c-6.5,6.6-15.6,4.9-19.4-3.5c-3.3-7.3-1.1-17.2,4.9-22.5
		c6.7-5.9,15.3-4,18.7,4.3C611.5,523.9,611.8,526.5,612.1,527.9z"/>
	<path class="st51" d="M458,424.4c4,0.3,8.8,1.1,10.9,6.2c2,5-0.5,9.1-4,12.5c-6,5.8-13.3,8.5-21.7,7c-8-1.4-10.8-8.3-6.4-15.2
		C440.8,428.9,449.4,424.4,458,424.4z"/>
	<path class="st51" d="M595.5,571.2c0.3-5.6,3.3-11.6,9.1-15.8c3.3-2.4,7.1-3.4,10.9-1.4c3.7,1.9,5.1,5.5,5.3,9.5
		c0.3,7.2-2.3,13.2-7.7,17.8c-3.5,3-7.5,4.6-12.2,2.6C597.4,582.3,595.3,578,595.5,571.2z"/>
	<path class="st51" d="M522.7,394.7c1.7,0.5,4.7,1.1,7.3,2.4c3.6,1.9,4,5.5,1.4,8.7c-4.7,5.7-17.3,7.7-23.7,3.8
		c-3.8-2.3-4.3-6-1.2-9.3C510.6,396.2,515.8,395.2,522.7,394.7z"/>
	<path class="st51" d="M456.4,408.2c-2.4-0.3-5.3,0-6.2-2.7c-1-2.8,1.3-4.6,3.3-6.1c5.2-3.9,11-6,17.5-5.9c2.2,0,4.8,0.2,5.6,2.8
		c0.7,2.4-1.1,4-2.8,5.4C468.7,405.9,462.8,407.8,456.4,408.2z"/>
	<path class="st51" d="M303.1,322.2c-8.1,1.6-16.2,3.1-24.2,5c-34.9,8.1-68.4,19.9-99.1,38.7c-14,8.6-27,18.5-37.7,31.2
		c-5.3,6.2-9.5,13.1-11.5,21.1c-2.9,11.1,0.3,20.4,8.9,27.8c8.3,7.2,18.2,11.7,28.5,15c6.5,2,9.9,6.2,10.9,12.6
		c1.2,7.1,0.2,13.9-3.9,20c-2.2,3.2-5,5.6-9.2,5.9c-1.7,0.1-3.4,0.7-3.5,2.7c-0.1,2.1,1.4,3.3,3.2,3.4c3.5,0.2,6.5,1.4,8.8,4.1
		c2.9,3.5,4.4,7.6,4.8,12c0.5,5.3-0.1,10.5-3.1,15.1c-1.8,2.8-4.3,4.3-7.6,4.7c-0.9,0.1-2.2,0.7-2.4,1.4c-0.3,0.9,0.1,2.2,0.6,3.1
		c0.5,0.8,1.5,1.6,2.4,1.8c8.5,2.6,12.1,9.3,14,17c0.9,3.5,0.8,7.4,0.2,10.9c-0.6,4.2-3.8,5.9-7.9,4.8c-2.3-0.6-4.6-1.4-6.7-2.5
		c-24.5-12.2-48-25.9-69.2-43.4c-16.1-13.2-30.3-28-40.4-46.5c-7.9-14.4-11.9-29.8-10.6-46.3c1.2-15,6.7-28.5,15.3-40.7
		c11.7-16.8,27.2-29.6,44.5-40.2c24-14.7,50.1-24.5,77.5-30.4c15.1-3.2,30.3-5.8,45.6-7.7c20.8-2.6,41.7-3.5,62.6-2.2
		c3.1,0.2,6.1,0.5,9.2,0.8C303,321.9,303.1,322,303.1,322.2z"/>
	<path class="st51" d="M285.8,530c-11.3,0.2-20.7-8.8-20.9-20.1c-0.3-12.5,10-23.3,22.4-23.6c11.4-0.3,20.8,9.1,20.9,20.7
		C308.4,519.4,298.2,529.8,285.8,530z"/>
	<path class="st51" d="M317.7,511.5c0.6-6.7,2.7-12.4,7.4-17c8.1-7.9,20.6-6.8,27.2,2.5c5.8,8.2,5.6,20.3-0.7,28.2
		c-4.2,5.2-9.5,8.2-16.4,7.5c-7.7-0.8-12.6-5.5-15.4-12.5C318.7,517.4,318.4,514.4,317.7,511.5z"/>
	<path class="st51" d="M257.5,503.7c-0.2,5.3-1.7,10-5,14.1c-8.5,10.5-23.6,8.7-29.5-3.6c-3.3-6.9-3.1-13.8,0.2-20.6
		c3.7-7.4,10.7-11.3,18.5-10.4c6.6,0.8,13,6.9,14.9,14.4C257.1,499.6,257.2,501.7,257.5,503.7z"/>
	<path class="st51" d="M279.2,536.4c9.8,0,17.7,7.8,17.8,17.7c0.1,10.5-8.9,19.6-19.3,19.6c-9.8,0-17.6-7.8-17.7-17.7
		C259.9,545.5,268.8,536.4,279.2,536.4z"/>
	<path class="st51" d="M376.9,554.5c-0.7,6.6-2.4,12.6-6.4,17.7c-6.6,8.4-16.5,7.3-21.2-2.2c-4.5-9-2.8-22.1,3.8-29.6
		c6.8-7.9,16.5-6.7,20.8,2.8C375.3,546.7,375.8,550.7,376.9,554.5z"/>
	<path class="st51" d="M219.9,547.2c0.7-2.7,1-5.6,2-8.1c3.7-9.1,13.4-11.6,21.2-5.5c7.3,5.7,10.8,16.6,8.1,25.5
		c-3.4,11.3-14.9,14.4-23.5,6.3C222.7,560.4,220.3,554.3,219.9,547.2z"/>
	<path class="st51" d="M318.2,616.1c-9.7-0.1-17.2-7.9-17.2-17.8c0.1-9.7,8.3-17.5,18.3-17.4c9.3,0.1,17,8,16.9,17.5
		C336.3,608.2,328.1,616.2,318.2,616.1z"/>
	<path class="st51" d="M183.6,489.7c-0.1-4,0.8-7.8,3-11.3c4.1-6.5,11.7-8.1,18.1-3.7c8.9,6.2,12.2,20.7,6.9,30.1
		c-4.2,7.4-12.4,9.2-19.1,4C186.2,504,183.7,497.3,183.6,489.7z"/>
	<path class="st51" d="M294.6,598.4c0,8.8-6.9,15.7-15.8,15.6c-9.3,0-17.1-7.9-17.1-17.1c0-8.8,6.8-15.5,15.8-15.5
		C287,581.4,294.6,589,294.6,598.4z"/>
	<path class="st51" d="M183,536c1.1-3.4,1.8-7,3.5-10c3.8-6.8,11.6-7.9,17.6-3.1c7.3,5.9,10.1,17.5,6.3,26c-3.8,8.6-13,10.5-19.9,4
		C185.8,548.4,183.9,542.6,183,536z"/>
	<path class="st51" d="M233.7,574.5c9.6,0.1,18.7,8.8,19.2,18.5c0.4,8.5-7.3,14-16.2,11.4c-8.4-2.5-13.7-8.1-15-16.9
		C220.7,581.1,225.1,574.3,233.7,574.5z"/>
	<path class="st51" d="M383.1,504.8c0.1-6.2,1.7-11.9,6-16.5c5.4-5.7,12.4-4.7,16.2,2.1c4.4,8,2.6,21-3.8,27.5
		c-5.2,5.3-12.2,4.6-15.7-2c-1.7-3.3-2.4-7.2-3.5-10.8C382.6,504.9,382.9,504.9,383.1,504.8z"/>
	<path class="st51" d="M185.7,574.1c-0.1-8.7,6.6-13.1,14.6-9.8c7.9,3.2,13.5,12.3,13,20.8c-0.4,6.6-5.8,10.6-12.2,9
		C192.7,592,185.8,583.1,185.7,574.1z"/>
	<path class="st51" d="M382.1,582.1c0.3-6.2,2.6-11.7,7.4-16.1c2.1-1.9,4.7-3.1,7.5-2c2.8,1.2,3.7,3.9,3.9,6.8
		c0.5,6.3-1.5,11.8-5.5,16.7c-0.5,0.7-1.2,1.3-1.8,1.8c-2.2,1.7-4.6,3.2-7.5,1.9c-2.9-1.3-3.7-4.1-3.9-7
		C382.2,583.6,382.1,583,382.1,582.1z"/>
	<path class="st51" d="M428.8,527.4c-1.1,3.7-2.2,8-3.6,12.3c-0.5,1.5-1.8,3-3,4.1c-2.2,2.1-4.6,1.7-5.8-1.1
		c-0.8-1.9-1.4-4.1-1.5-6.2c-0.3-5.1,0.9-10.1,3.2-14.7c0.6-1.2,1.4-2.4,2.3-3.4c2.7-2.9,5.5-2.4,6.8,1.4
		C428,522,428.2,524.3,428.8,527.4z"/>
	<path class="st51" d="M569.8,432.5c2.2-6.5,4.4-12.6,6.4-18.8c6.7-20.3,11.6-41,14.8-62.2c2.2-15.2,3.6-30.6,3.1-46
		c-0.5-17.5-2.4-34.8-8.7-51.3c-2.7-7.1-6.3-13.6-11.6-19c-7.8-7.9-17-10.3-27.7-7c-10.2,3.1-18.6,9.2-26.7,15.9
		c-0.1,0.1-0.3,0.2-0.4,0.3c-8.5,7.3-15.3,7.6-24.5,1c-5.1-3.6-9.2-8.2-10-14.7c-0.3-2,0.3-4.2,0.9-6.2c0.6-1.8,1-3.4-0.9-4.5
		c-1.9-1.1-3.5-0.2-4.5,1.4c-3.8,6-9.5,6.2-15.5,5.1c-5.9-1.1-10.8-4-14.6-8.7c-3.1-3.8-4.4-7.9-2-12.6c1-1.9-0.7-3.8-2.9-3.4
		c-1.2,0.2-2.6,0.7-3.5,1.5c-5,4.9-11.2,5-17.4,4.3c-4.7-0.5-9-2.1-12.7-5.2c-4.1-3.4-4.5-7.2-0.6-10.7c3.1-2.8,6.6-5.2,10.2-7.5
		c23.3-15,47.5-28.2,73.9-37.2c13.2-4.5,26.7-7.8,40.6-8.9c21.5-1.6,41.8,1.6,59.8,14.6c12.4,9,21.1,20.9,27.3,34.7
		c6.8,15.2,10,31.2,11.1,47.7c2.7,40.1-6.1,78.2-20.4,115.2c-10.7,27.9-23.8,54.6-40.7,79.3c-0.6,0.9-1.2,1.7-1.8,2.5
		C570.5,432.2,570.3,432.2,569.8,432.5z"/>
	<path class="st51" d="M416.6,302.6c12,0,22,10.3,22.1,22.7c0.1,12-9.1,21.5-20.8,21.5c-12,0-21.9-10.3-22-22.7
		C395.8,312.2,405,302.6,416.6,302.6z"/>
	<path class="st51" d="M447.2,304.9c-11.2,0-21-8.5-22.5-19.6c-1.3-9.3,6.2-18,16-18.8c9.6-0.7,19.2,5.3,22.8,14.2
		C468.5,293,460.4,304.9,447.2,304.9z"/>
	<path class="st51" d="M399,294.7c0,10.3-7.7,18.4-17.6,18.5c-10.1,0-18.8-8.9-18.8-19.4c0-10.2,7.7-18.2,17.2-18.5
		C389.7,274.9,399.2,283.8,399,294.7z"/>
	<path class="st51" d="M357.2,371.3c-0.1,6.8-4.7,11.1-12.1,11.4c-11.4,0.5-24.5-10.1-26.4-21.5c-1.3-7.6,4.4-13.7,12.7-13.5
		c10.7,0.2,22.5,9.4,25.1,19.8C356.9,368.8,357,370,357.2,371.3z"/>
	<path class="st51" d="M408.8,276.4c-7.1-0.5-13.3-2.8-18.1-8.1c-7.7-8.5-4.6-19.5,6.3-23c8.8-2.8,19.3,0.1,25.3,7.1
		c6.8,7.9,4.4,18.2-5.4,22C414.4,275.5,411.5,275.8,408.8,276.4z"/>
	<path class="st51" d="M340.6,307.4c0,9.7-7.6,17.6-17.2,17.6c-9.7,0.1-17.8-8.1-17.8-18c0-9.8,7.9-17.8,17.5-17.7
		C332.7,289.5,340.5,297.6,340.6,307.4z"/>
	<path class="st51" d="M478.5,272.3c-7.8-0.2-14.5-2.9-19.4-9.1c-6.8-8.7-2.7-19.3,8.1-21.4c8.7-1.7,16.4,0.7,22.7,6.8
		c4.1,4,6.4,8.9,4.3,14.7c-2.2,6-7.2,8.1-13.1,8.9C480.2,272.4,479.3,272.3,478.5,272.3z"/>
	<path class="st51" d="M360.7,272.2c0,9.1-7.9,16.7-17.3,16.6c-9.1-0.1-16-7.1-16-16.1c0-8.9,7.9-16.3,17.2-16.2
		C353.8,256.7,360.7,263.4,360.7,272.2z"/>
	<path class="st51" d="M431.3,218.3c9.1,0.4,15.5,3.1,20,9.5c5,7.1,2.4,15.2-5.6,18.3c-9.4,3.7-22.4-1-26.8-9.8
		c-3.2-6.4-1-13.2,5.6-16.1C427,219,429.9,218.7,431.3,218.3z"/>
	<path class="st51" d="M368.7,255.7c-3.2-1.2-6.6-1.9-9.4-3.7c-4.7-2.9-6-8.5-3.9-13.6c3.9-9.5,18.3-14.3,27.2-8.9
		c6.4,3.9,7.7,11.6,2.8,17.8c-4.2,5.3-9.8,7.6-16.4,7.7C368.9,255.2,368.8,255.4,368.7,255.7z"/>
	<path class="st51" d="M373.1,436.3c-10.1-0.2-20.6-9.2-22.2-19c-0.9-5.3,3-10.1,8.7-10.7c9.7-1,22,8.1,23.9,17.6
		C384.9,431.7,380.7,436.5,373.1,436.3z"/>
	<path class="st51" d="M399,226.1c-4.2-0.1-8.2-0.9-11.7-3.5c-5.3-3.9-6-10.1-1.6-14.9c6.1-6.7,19.3-7.9,26.6-2.5
		c5.7,4.3,6.1,10.8,0.9,15.7C409.3,224.7,404.3,225.9,399,226.1z"/>
	<path class="st51" d="M293.3,374.8c0-5.3,3.3-7.7,8.5-6.2c6.9,2,13.9,11.1,14.1,18.2c0.1,4.9-3.1,7.5-7.9,6.4
		C300.8,391.5,293.3,382.2,293.3,374.8z"/>
	<path class="st51" d="M341.8,436.9c-0.2,2.7-1.9,4.4-4.7,3.7c-2.8-0.7-5.6-1.8-8-3.3c-4.8-3.1-9-7-10.6-12.8
		c-0.9-3.1,0.7-5.1,3.9-4.9c1.2,0.1,2.4,0.4,3.5,0.8c6.1,2.5,10.8,6.6,14.2,12.2C340.9,433.9,341.3,435.5,341.8,436.9z"/>
	<path class="st51" d="M387,347.2c13,0,23.8,10.9,23.4,23.5c-0.3,8.6-7,15.7-15.6,16.5c-13.4,1.3-25-8-26.2-21.3
		C367.6,354.7,376.7,346.8,387,347.2z"/>
</g>
<g id="CLINLAB_STAFFING">
	<g>
		<path class="st52" d="M842.3,355.4c1.2,7.8,1.8,15.8,1.8,24c0,1.6-0.1,3.8-0.2,6.5c-1.4,0.3-2.5,0.5-3.2,0.5
			c-0.6,0-1.5-0.1-2.6-0.3c-4.2-11.8-11.2-20.9-20.8-27.3c-9.6-6.4-21.5-9.6-35.7-9.6c-7.5,0-13.8,0.9-19,2.6
			c-9.1,3.1-17.1,7.5-24,13c-6.9,5.5-12.7,12.1-17.5,19.7c-4.8,7.6-8.5,16.9-11.3,27.8c-2.8,10.9-4.2,22-4.2,33.3
			c0,21.7,3.3,39.5,9.9,53.7c6.6,14.1,15.6,24.2,27,30.2c11.4,6,23,9,34.6,9l7.1-0.2c8.1-1,13.6-2,16.5-2.9
			c7.4-2.1,13.5-4.6,18.3-7.5c4.8-2.9,9.5-7,14.1-12.2c4.6-5.3,8.5-11.4,11.8-18.4l1.8-0.6c0.5,0,1.3,0.3,2.3,0.9
			c-0.1,2.4-0.2,4-0.3,4.7c-4.2,17.1-7.3,28.8-9.3,35.1c-1.6,0.4-3.6,1-6.1,1.8c-11.8,4-27.7,6.1-47.5,6.1c-16,0-28-1.1-35.9-3.3
			c-7.9-2.2-16.6-5.6-26-10.2c-9.4-4.6-17.6-10.7-24.7-18.3c-7.1-7.6-12.8-17.2-17.2-28.8c-4.4-11.6-6.5-24.2-6.5-37.9
			c0-13,1.7-24.3,5.2-33.9c3.4-9.7,8.8-19.5,15.9-29.4c7.2-9.9,15.7-18.2,25.4-24.7c9.8-6.6,20.6-11.2,32.6-14
			c8.4-1.8,20.3-2.7,35.7-2.7c11.2,0,21.8,1.5,31.7,4.5C832.3,349.6,838.9,352.5,842.3,355.4z"/>
		<path class="st52" d="M942.4,542.1c0.1-1.5,0.5-2.9,1.2-4.1c7.9-2.1,15.6-3.5,23.1-4.3c5-0.4,8.1-1.5,9.6-3.3
			c1-1.3,1.6-6.2,1.8-14.6l1.1-40.1l-0.2-27.2l0.2-35.5v-9.4c0.1-21.4,0-34.7-0.3-39.9c-0.1-1-0.5-2.4-1.2-4.3
			c-2.6-1.2-4.9-2-6.6-2.4c-1.8-0.4-9.7-1.9-23.9-4.4c-0.1-1.1-0.2-1.9-0.2-2.4c0-0.6,0-1.4,0.2-2.4c1.9,0,5.1,0.1,9.4,0.3l23.1,0.9
			l13.4,0.3l4-0.2c0.5,0,2,0.1,4.4,0.3c6,0,9.4,0,10.3-0.2l12.2-0.9c8.2,0,14,0.2,17.3,0.5c-0.1,1.8-0.5,3.8-1.1,5.9
			c-1.1,0.2-6.4,0.5-15.8,0.8c-9.4,0.4-14.8,0.9-16.2,1.7c-2.3,1.3-3.5,5.4-3.5,12.1c0,1.6-0.1,4.9-0.3,9.9v9.1l0.2,28.1v9.6
			l0.3,50.2l-0.5,42.8l0.2,9.4c0,3,0.5,4.9,1.5,5.6c2.5,0.1,10,0.2,22.3,0.3h10.3l26.3-0.9c6.9-0.2,11.8-0.9,14.7-2
			c2.9-1.2,7.8-4.6,14.7-10.2c4.1-3.6,7.4-7.4,9.7-11.2c0.5-0.8,1.4-2,2.6-3.6c1.9-2.6,4.5-7.9,7.7-15.8h5c-0.6,3.6-1.3,7.1-2,10.3
			c-2.9,14.3-5,26.2-6.1,35.7c-0.2,2-0.4,3.9-0.6,5.6l-56.8-1.7c-48.8,0-77.7,0.5-86.8,1.4c-2.8,0.2-5.8,0.3-9,0.3H942.4z"/>
		<path class="st52" d="M1206.1,536.3c2.2-0.9,4.5-1.5,6.8-1.7c15.5-1,24.3-2.9,26.6-5.5c2.2-2.7,3.3-15.7,3.3-39l-0.2-15.9v-16.7
			l-0.6-18.4l0.3-10.8l-0.2-11.8v-14l-0.3-6.2l0.3-7.9c0.1-1.8,0.2-3.9,0.2-6.4c0-6.4-0.3-13.1-0.9-20.2c-0.4-1.4-1-2.8-1.7-4.1
			c-3.7-1.9-9.8-3.2-18.1-3.9s-13.1-1.4-14.2-2.2c-0.8-0.6-1.3-2.2-1.4-4.7h12.8l40.3,0.9c10.3,0,24.1-0.3,41.3-0.9
			c0,1.6-0.1,3.1-0.3,4.6c-2,0.5-5.4,1.1-10.2,1.7c-9.6,1.1-15.5,2.2-17.6,3.2c-1.3,0.5-2.3,1.4-2.9,2.6c-1,1.8-1.6,5.2-1.8,10.2
			l-0.8,19.6l0.6,67.6V483c-0.2,8.4-0.3,14.1-0.3,17.2c0,11.3,0.3,18.6,0.8,21.7c0.6,3.1,1.5,5.4,2.9,6.8c1.4,1.4,3.6,2.5,6.8,3.3
			c4.7,1.1,8.3,1.7,10.9,1.8c5.7,0.2,9.3,1,10.8,2.4c0.3,1.3,0.5,2.4,0.5,3.3v1.2c-9.2,0.3-16,0.5-20.4,0.5c-2.5,0-7-0.2-13.5-0.5
			l-21,0.3l-35.7-0.2h-2.9L1206.1,536.3z"/>
		<path class="st52" d="M1394.5,355.5l-0.2-7.3c15.7,0,27.2-0.4,34.5-1.2c2.8-0.3,4.8-0.5,5.9-0.5c0.9,0,2.3,0.1,4.1,0.2
			c4.2,3.5,8.2,7.6,11.8,12.1c0.8,0.9,1.7,1.9,2.7,3l32,35.4l4.6,5.5c6.5,7.6,12.4,14.1,17.7,19.4c5.3,5.4,15.7,16.5,31,33.5
			l36.3,40.2c3.5,3.9,8.1,8.9,13.7,14.7l0.2-2.4c-0.6-14.1-0.9-21.5-0.9-22.3l0.6-9.1l-0.3-14.3V456c0-4.1-0.4-16.9-1.1-38.4
			c-0.1-2.9-0.5-8.5-1.2-16.6c-0.7-8.1-1.1-15.3-1.1-21.5c0-11.1-0.7-17.6-2-19.4c-0.9-1.3-5.2-2.7-12.9-4.1
			c-1.8-0.1-4.7-0.4-8.5-0.9c-4.6-0.2-7.2-0.5-8-0.8c-0.8-0.3-1.6-1.2-2.4-2.6c0.2-1.6,0.7-3.1,1.4-4.6c2.7-0.8,5.4-1.2,8-1.2
			c2.8,0,6.3,0.4,10.5,1.1c4.2,0.7,8,1.1,11.3,1.1c4.7,0,11.9-0.3,21.7-0.9c5.6-0.4,9.4-0.6,11.5-0.6h2.6l-0.3,4.7
			c-1.6,0.7-3.8,1.1-6.7,1.3c-2.8,0.2-5.5,0.6-7.9,1.3c-3.6,1.1-5.8,2.1-6.5,2.9c-2.4,2.6-3.6,5.3-3.6,8l1.7,48l1.2,22l-0.2,6.4
			l0.9,30.5c0.6,20.8,0.9,39,0.9,54.3c0,3.3-0.2,10.6-0.6,21.7l-7.1,0.6c-3.5-4-15.7-16.8-36.6-38.2c-4.9-5-8.1-8.4-9.9-10.5
			l-13.1-15c-5.1-5.6-8.4-9.1-9.9-10.6s-2.6-2.6-3.3-3.3c-11-12.5-25.4-28.2-43-47c-4.8-5.1-11.7-13-21-23.7
			c-5.8-6.8-9.4-10.9-10.9-12.4s-3.6-3.2-6.2-5.2l-0.5,5.2c0,19.7,0.5,47,1.5,81.7l1.1,50.2c0.1,4.2,0.4,8.3,0.8,12.3l5.3,1.2
			c9.6,0.9,19.1,2.3,28.4,4.1c0.7,0.6,1.3,1.1,1.8,1.4l-0.2,5.8c-1.6,0.5-2.9,0.8-3.9,0.8c-1.1,0-2.5-0.1-4.1-0.3
			c-10-0.8-22.2-1.2-36.6-1.2c-10.1,0-19,0.3-26.7,0.8l-2.1,0.2c-0.9,0-2.2-0.1-3.9-0.3l-0.2-4.6l3.9-1.8l7.1-1.1
			c6.4-0.9,11-1.9,14-3c1.9-0.7,3.5-1.8,4.7-3.2c1.1-7,1.7-17.2,1.7-30.7c0-6.3-0.2-17.8-0.5-34.5v-20.6l-0.3-43.1
			c-0.2-19.2-0.9-30.6-2-34c-0.6-1.8-1.9-3.4-3.8-4.9c-3.8-2.7-8.9-4.5-15.1-5.2C1400.3,356.6,1396.3,356,1394.5,355.5z"/>
		<path class="st52" d="M1712.5,542.1c0.1-1.5,0.5-2.9,1.2-4.1c7.9-2.1,15.6-3.5,23.1-4.3c5-0.4,8.1-1.5,9.6-3.3
			c1-1.3,1.6-6.2,1.8-14.6l1.1-40.1l-0.2-27.2l0.2-35.5v-9.4c0.1-21.4,0-34.7-0.3-39.9c-0.1-1-0.5-2.4-1.2-4.3
			c-2.6-1.2-4.9-2-6.6-2.4c-1.8-0.4-9.7-1.9-23.9-4.4c-0.1-1.1-0.2-1.9-0.2-2.4c0-0.6,0-1.4,0.2-2.4c1.9,0,5.1,0.1,9.4,0.3l23.1,0.9
			l13.4,0.3l4-0.2c0.5,0,2,0.1,4.4,0.3c6,0,9.4,0,10.3-0.2l12.2-0.9c8.2,0,14,0.2,17.3,0.5c-0.1,1.8-0.5,3.8-1.1,5.9
			c-1.1,0.2-6.4,0.5-15.8,0.8c-9.4,0.4-14.8,0.9-16.2,1.7c-2.3,1.3-3.5,5.4-3.5,12.1c0,1.6-0.1,4.9-0.3,9.9v9.1l0.2,28.1v9.6
			l0.3,50.2l-0.5,42.8l0.2,9.4c0,3,0.5,4.9,1.5,5.6c2.5,0.1,10,0.2,22.3,0.3h10.3l26.3-0.9c6.9-0.2,11.8-0.9,14.7-2
			c2.9-1.2,7.8-4.6,14.7-10.2c4.1-3.6,7.4-7.4,9.7-11.2c0.5-0.8,1.4-2,2.6-3.6c1.9-2.6,4.5-7.9,7.7-15.8h5c-0.6,3.6-1.3,7.1-2,10.3
			c-2.9,14.3-5,26.2-6.1,35.7c-0.2,2-0.4,3.9-0.6,5.6l-56.8-1.7c-48.8,0-77.7,0.5-86.8,1.4c-2.8,0.2-5.8,0.3-9,0.3H1712.5z"/>
		<path class="st52" d="M1968,536.3c1.4-0.8,2.7-1.2,3.8-1.2h3.5c0.7,0,1.9,0,3.6-0.2c7.8-0.7,12.4-1.4,13.8-2.1
			c3.5-1.9,6.6-5.3,9.1-10c5.3-10.3,11.2-24.9,17.8-43.9c3.1-9,5.1-14.5,5.9-16.4c2.5-6.1,5-12.4,7.3-19.1l14.3-39.9
			c2.2-6.3,7.6-20.6,16.1-43.1c2.1-5.7,4.7-13.3,7.7-22.8l4.5-0.3l5.3,0.2c4.3,8.6,8.2,17.9,11.5,27.8c1.8,5.3,4.8,13.1,8.9,23.5
			l23,62.4l12.3,33.8c6.5,19.2,10.7,31,12.7,35.4c2,4.4,3.9,7.3,5.6,8.7c0.5,0.4,2.4,1,5.7,1.8c3.3,0.8,5.6,1.4,6.9,1.8
			c4.7,1.3,7.9,2.4,9.7,3.3c0.4,1.1,0.6,2,0.6,2.6c0,0.5-0.2,1.3-0.5,2.3c-3.2,0.1-5.5,0.2-6.8,0.2c-5.2,0-14.3-0.2-27.3-0.5
			l-15.2-0.3l-18.4,0.2c-1.2,0-2.5-0.1-3.7-0.2c-1.3-0.1-2.4-0.2-3.3-0.2h-3.3c-1.1-0.1-2.1-0.4-3-0.9c0-1.4,0.3-2.8,0.8-4.1
			c1.2-0.6,2.3-1,3.3-1.1l15.9-1.1c4.1-0.2,7.3-0.8,9.4-1.7c0.6-1.8,0.9-3.2,0.9-4.1c0-1.8-1.3-6.5-3.9-14.1
			c-1.8-5.1-3.4-9.9-4.8-14.4c-1.4-4.6-6.7-19.6-16.1-45c-4.2-0.7-7.8-1.1-10.9-1.1l-32.5,0.3l-9.6-0.2c-3.4,0-7.2,0.3-11.4,0.8
			c-1.3,3-2.2,5.2-2.6,6.5l-13.4,41.7c-5.7,15.9-8.5,24.6-8.5,26.3c0,0.9,0.5,2.4,1.4,4.6c2.1,0.6,5,1.2,8.5,1.7l20.6,1.8
			c1.1,0.9,1.7,1.7,1.7,2.4c0,0.5-0.2,1.3-0.5,2.3c-4.6,0.1-8,0.2-10.5,0.2c-8.1,0-17.5-0.3-28.2-0.8c-5-0.2-8.5-0.3-10.6-0.3
			c-2.1,0-5.8,0.1-11.1,0.3c-3.4,0.2-5.9,0.3-7.4,0.3c-2.4,0-5.6-0.2-9.4-0.5v-0.9C1967.4,538.5,1967.6,537.5,1968,536.3z
			 M2040.5,445.2c10.8,0.6,23.2,0.9,37,0.9c7.9,0,14.8-0.3,20.8-0.8c-1-3.9-2.2-7.6-3.5-11.1c-6.6-17.6-10.2-27.3-10.9-29.1
			l-13.8-35l-1.5-2.7c-0.6,1.2-2.8,6.4-6.7,15.6c-6.5,15.8-11.1,28.1-14,36.9c-1.3,3.9-2.7,7.9-4.1,11.8c-1.4,3.9-2.3,6.6-2.7,8.2
			c-0.4,1.6-0.9,3.2-1.6,4.8L2040.5,445.2z"/>
		<path class="st52" d="M2265.1,353.2v-4.7c1.7-0.4,3.1-0.7,4.1-0.8l14.3-0.8c11.8-1.1,25.1-1.9,39.8-2.5c5.9-0.2,15.1-0.3,27.8-0.3
			c17.2,0,29.8,1.3,37.8,3.8c11.6,3.7,20.3,9.4,26,16.9c5.7,7.5,8.6,15.9,8.6,25.1c0,15-10.7,27.6-32,37.8l-0.7,1.1
			c10.9,2.9,19.9,7,26.9,12.3s12.3,11.7,16.1,19.3c2.7,5.6,4.1,12.9,4.1,21.9c0,15.1-6.9,28.5-20.6,40.3
			c-13.7,11.8-32.6,17.7-56.7,17.7h-22.6l-22.9,0.8c-20.2,0.2-32.1,0.3-35.5,0.3c-3.5,0-7-0.2-10.5-0.5v-1.7c0-1.2,0.3-2.1,0.8-2.6
			c0.6-0.6,1.8-1.1,3.5-1.6c12.6-2.6,19.8-4.4,21.5-5.4c1.7-1,2.8-2.5,3.4-4.6c1.2-4,1.8-14.4,1.8-31.2c0-1.5-0.1-3.4-0.2-5.8
			c-0.2-6.8-0.3-10.7-0.3-11.7v-15.8c0-26.7-0.3-49.9-0.9-69.8l-0.2-30.5l-0.2-3.8c-8.6-1.2-16.2-2-22.8-2.3
			C2271.2,354.2,2267.8,353.9,2265.1,353.2z M2325.2,429.9c5.1,1,10.4,1.5,16,1.5c21.9,0,36.8-4.8,44.6-14.4
			c7.8-9.6,11.7-19.2,11.7-28.7c0-4.2-0.7-8.6-2.1-13c-1.4-4.4-3.8-8.4-7.3-11.9c-3.5-3.5-7.8-6.2-13-7.9
			c-8.8-2.9-17.8-4.4-27.1-4.4c-8.6,0-16.6,1-24,2.9c-0.1,2.1-0.2,3.7-0.2,4.7c0,1,0.1,3.9,0.3,8.7c0.1,3,0.2,6.1,0.2,9.1l-0.5,18.4
			l0.2,10.9l1.1,21.4L2325.2,429.9z M2361,533.1c10-0.7,18.4-2.8,25.2-6.4c3.1-1.6,6.9-4.5,11.2-8.7c4.3-4.2,7.7-9.2,10-15.1
			c2.4-5.9,3.6-11.5,3.6-17c0-4.1-0.8-9.3-2.5-15.3c-1.7-6.1-4.5-11.4-8.5-16c-4-4.6-10-8.4-17.9-11.4c-7.9-3-16.6-4.5-26.2-4.5
			c-18.4,0-28.8,0.4-31,1.1c-0.1,2.3-0.2,4-0.2,5.2l0.2,5.6l-0.2,11.4v12.9c0.3,23.8,0.9,37.8,1.7,42.2c0.8,4.4,3.6,8.1,8.3,11.2
			C2339.5,531.4,2348.2,533,2361,533.1z"/>
		<path class="st52" d="M2812.1,353.9c0.8,6.7,1.2,10.5,1.2,11.5l-0.6,13.5c-0.2,5.8-0.5,9.5-0.8,11.1c-0.9,0.4-1.7,0.6-2.3,0.6
			l-1.4-0.3c-3.2-14.2-8.7-24.5-16.5-31c-7.7-6.5-17.2-9.7-28.3-9.7c-11.5,0-21,3.2-28.4,9.7c-7.4,6.5-11.1,14-11.1,22.6
			c0,6.6,2.6,12.6,7.7,18.1s18.4,13.6,39.6,24.5c16.2,8.4,27.8,15.2,34.8,20.5c7,5.3,12.2,11.5,15.8,18.5c3.5,7,5.3,14.8,5.3,23.4
			c0,10.8-2.8,21-8.4,30.5c-5.6,9.5-13.2,16.7-22.7,21.5c-9.5,4.8-22.1,7.2-37.8,7.2c-13.7,0-26.8-2.2-39.3-6.5
			c-7.4-2.6-11.9-4.8-13.5-6.4c-1.6-1.6-2.4-3.3-2.4-5.2c0-1.1,0.1-2.5,0.3-4.2c1.4-11.9,2.2-21.8,2.3-29.4c0.2-4.8,0.6-7.5,1.1-8.3
			c0.4-0.7,1.2-1.1,2.3-1.1c0.9,0,1.6,0.3,2.2,1c0.6,0.7,0.9,1.9,1.1,3.7c1.1,12.4,6.9,23.6,17.3,33.4c10.3,9.8,22,14.7,35.1,14.7
			c8,0,15.4-1.7,22.1-5c6.7-3.3,12-8.2,15.8-14.5c3.8-6.3,5.7-12.5,5.7-18.4c0-8.2-2.9-15.7-8.7-22.5c-5.8-6.8-17.4-14.7-34.8-23.8
			c-17.4-9.1-28.7-15.7-34-19.8c-8.5-6.8-14.9-14-19.1-21.6c-3.1-5.9-4.7-12.7-4.7-20.5c0-14.1,5.6-26,16.7-35.7
			c11.1-9.8,26.1-14.6,44.8-14.6c10.3,0,19.2,1.2,26.7,3.5C2800.7,346.7,2806.4,349.7,2812.1,353.9z"/>
		<path class="st52" d="M2926.6,369.6l6.2-22.9c0.4-3,1-5,1.7-5.8c0.7-0.9,1.5-1.3,2.4-1.3c1.8,0,3.9,2.2,6.2,6.5
			c1.7,3.1,3.1,5.1,4.2,6c1.1,0.9,2.7,1.4,4.9,1.7l1.5-0.2l6.5,0.6l35.8,0.5l42.3-0.1h12.4l23.5-0.4c1,0,2.3,0.1,3.8,0.3
			c6.9,0.6,11.1,0.9,12.7,0.9c1.5,0,2.7-0.5,3.6-1.5c0.3-0.4,2-3.7,5-10c1.3-2.8,2.9-4.3,4.9-4.3c0.8,0,1.8,0.2,3,0.6
			c0.5,2,0.8,3.8,0.8,5.4l-0.2,6l0.2,12.8c0,3.1-0.3,13.2-0.8,30.1c0,1.1-0.2,2.1-0.6,3c-1.1,0.7-2.1,1.1-2.9,1.1
			c-0.8,0-1.5-0.4-2.1-1.1c-0.6-0.8-1.4-3.1-2.3-7c-2-9-4.6-15.5-7.6-19.4c-2-2.5-4.9-4.3-8.7-5.4c-3.8-1.1-12.9-1.7-27.2-1.7
			c-11.5,0-20.1,0-25.7,0c-0.2,4.1-0.3,7.7-0.3,11.1l1.2,94.3c0,3.7-0.2,10.8-0.6,21.3l0.2,20.2l-0.2,11.2c0,3.5,0.6,6.1,1.8,7.6
			c1.2,1.5,4.5,3,9.9,4.4c9.3,2.3,15.5,3.7,18.7,4.3c1.9,0.2,3.5,0.6,4.7,1.2v4.6l-21.6-0.5c-11.8-0.1-20.7-0.3-26.7-0.7l-22.2,1.1
			l-16.2,0.9c-4.6,0-7.3-0.1-8.3-0.3l-2.1-0.9c0.2-2.3,0.7-3.8,1.4-4.5c0.7-0.7,2.6-1.2,5.6-1.6c4.2-0.6,9.3-1.7,15-3.3
			c5.8-1.6,9.6-3.2,11.4-4.8c1-0.9,1.7-2.4,2.1-4.6c0.9-4.5,1.4-13.2,1.4-26.3V473l-0.6-56.3l-0.6-12.1l-0.2-40.5
			c-6.4,0-14.5,0-24.4,0c-14.6,0-23.4,0.9-26.6,2.6c-5,2.8-12.3,10.8-22.2,24.1c-3.2,5-6.1,7.5-8.5,7.5l-1.4-0.3
			c-0.4-0.6-0.6-1.2-0.6-1.7c0-1.2,0.8-4.9,2.4-10.9C2925,377.6,2926.2,372.4,2926.6,369.6z"/>
		<path class="st52" d="M3183.7,536.3c1.4-0.8,2.7-1.2,3.8-1.2h3.5c0.7,0,1.9,0,3.6-0.2c7.8-0.7,12.4-1.4,13.8-2.1
			c3.5-1.9,6.6-5.3,9.1-10c5.3-10.3,11.2-24.9,17.8-43.9c3.1-9,5.1-14.5,5.9-16.4c2.5-6.1,5-12.4,7.3-19.1l14.3-39.9
			c2.2-6.3,7.6-20.6,16.1-43.1c2.1-5.7,4.7-13.3,7.7-22.8l4.5-0.3l5.3,0.2c4.3,8.6,8.2,17.9,11.5,27.8c1.8,5.3,4.8,13.1,8.9,23.5
			l23,62.4l12.3,33.8c6.5,19.2,10.7,31,12.7,35.4c2,4.4,3.9,7.3,5.6,8.7c0.5,0.4,2.4,1,5.7,1.8c3.3,0.8,5.6,1.4,6.9,1.8
			c4.7,1.3,7.9,2.4,9.7,3.3c0.4,1.1,0.6,2,0.6,2.6c0,0.5-0.2,1.3-0.5,2.3c-3.2,0.1-5.5,0.2-6.8,0.2c-5.2,0-14.3-0.2-27.3-0.5
			l-15.2-0.3l-18.4,0.2c-1.2,0-2.5-0.1-3.7-0.2c-1.3-0.1-2.4-0.2-3.3-0.2h-3.3c-1.1-0.1-2.1-0.4-3-0.9c0-1.4,0.3-2.8,0.8-4.1
			c1.2-0.6,2.3-1,3.3-1.1l15.9-1.1c4.1-0.2,7.3-0.8,9.4-1.7c0.6-1.8,0.9-3.2,0.9-4.1c0-1.8-1.3-6.5-3.9-14.1
			c-1.8-5.1-3.4-9.9-4.8-14.4c-1.4-4.6-6.7-19.6-16.1-45c-4.2-0.7-7.8-1.1-10.9-1.1L3274,453l-9.6-0.2c-3.4,0-7.2,0.3-11.4,0.8
			c-1.3,3-2.2,5.2-2.6,6.5l-13.4,41.7c-5.7,15.9-8.5,24.6-8.5,26.3c0,0.9,0.5,2.4,1.4,4.6c2.1,0.6,5,1.2,8.5,1.7l20.6,1.8
			c1.1,0.9,1.7,1.7,1.7,2.4c0,0.5-0.2,1.3-0.5,2.3c-4.6,0.1-8,0.2-10.5,0.2c-8.1,0-17.5-0.3-28.2-0.8c-5-0.2-8.5-0.3-10.6-0.3
			c-2.1,0-5.8,0.1-11.1,0.3c-3.4,0.2-5.9,0.3-7.4,0.3c-2.4,0-5.6-0.2-9.4-0.5v-0.9C3183.1,538.5,3183.3,537.5,3183.7,536.3z
			 M3256.1,445.2c10.8,0.6,23.2,0.9,37,0.9c7.9,0,14.8-0.3,20.8-0.8c-1-3.9-2.2-7.6-3.5-11.1c-6.6-17.6-10.2-27.3-10.9-29.1
			l-13.8-35l-1.5-2.7c-0.6,1.2-2.8,6.4-6.7,15.6c-6.5,15.8-11.1,28.1-14,36.9c-1.3,3.9-2.7,7.9-4.1,11.8c-1.4,3.9-2.3,6.6-2.7,8.2
			c-0.4,1.6-0.9,3.2-1.6,4.8L3256.1,445.2z"/>
		<path class="st52" d="M3485.8,543.4l0.2-3.7c2.2-1.1,5.9-2.1,11.1-2.9c5.2-0.9,8.8-1.7,10.7-2.6c2-0.9,3.6-2,4.9-3.4
			c0.9-4.5,1.4-12.5,1.4-24.2V388.5l0.5-19.6c0-4.1-0.8-6.8-2.4-8.4c-1.6-1.5-5.7-2.9-12.4-4.2c-6.7-1.3-10.6-2.3-11.8-3.1
			c-1.2-0.8-1.8-1.7-1.8-2.6c0-0.5,0.2-1.2,0.5-2c1.3-0.8,2.7-1.2,4.1-1.2c1.5,0,4.6,0.1,9.3,0.3h4.2c1.4,0,5.4-0.1,12-0.3h21.1
			l43.6-0.8l46.1-1.8h4.1l6.5-0.2c1.8,0,3.4,0.5,4.9,1.5c0.6,1.6,1,2.8,1.1,3.5l-0.2,6.1l1.4,27.2c0,1.1-0.1,2.5-0.3,4.2
			c-1.6,0.7-3.1,1.1-4.4,1.1c-0.9,0-1.6-0.3-2.1-0.9c-0.8-1.1-1.3-3.2-1.5-6.4c-0.4-4.3-2-10-4.7-16.8c-1.3-3.2-3.5-5.5-6.5-6.7
			c-6.1-2.3-16.3-3.5-30.6-3.5c-6.8,0-13.1,0.2-18.9,0.5c-5.9,0.4-9.4,0.5-10.8,0.5l-11.8-0.2c-4.8,0-8.8,0.7-12,2.1
			c-2.1,0.9-3.2,3.1-3.2,6.5v2.3c0.3,5.2,0.5,10.9,0.5,17.2l-0.5,41.3c0,4,0.3,7.9,0.9,11.5l4.4,0.3l8.5-0.5h28.9
			c11.6,0,19.7-0.8,24.2-2.4c3-1.1,5.3-2.8,6.8-5c0.5-0.7,1.8-4.7,3.8-12l2-12.6c1.2-0.6,2.1-0.9,2.7-0.9c0.5,0,1.3,0.3,2.4,0.8
			c0.4,2.3,0.7,5.9,0.8,10.6l1.8,55.9c-1.7,0.7-3,1.1-3.9,1.1l-1.7-0.3c-1.6-10.1-4.2-18.1-7.6-23.8c-1.2-2-2.6-3.2-4.1-3.5
			c-2.6-0.6-14.7-0.9-36.1-0.9c-6.7,0-11.3,0.1-13.8,0.2c-6.1,0.3-9.7,0.5-10.9,0.5h-1.5c-3,0-5.2,0.4-6.5,1.2
			c-0.4,1.2-0.6,2.1-0.6,2.6v10.5c0,1.2,0,6.3,0.2,15.2l-0.3,50.2c0,1.4,0.4,3.2,1.2,5.3c2.1,1.7,6,2.9,11.6,3.4
			c5.6,0.6,10.9,1.9,15.9,4c2.8,1.3,4.2,2.8,4.2,4.4c0,0.7-0.2,1.4-0.6,2s-1.1,1.1-2.1,1.4c-8.3-1.7-19.7-2.6-34.4-2.6
			c-7.8,0-16,0.7-24.7,2.1c-6,0.9-12.8,1.4-20.5,1.4L3485.8,543.4z"/>
		<path class="st52" d="M3741.4,543.4l0.2-3.7c2.2-1.1,5.9-2.1,11.1-2.9c5.2-0.9,8.8-1.7,10.7-2.6c2-0.9,3.6-2,4.9-3.4
			c0.9-4.5,1.4-12.5,1.4-24.2V388.5l0.5-19.6c0-4.1-0.8-6.8-2.4-8.4c-1.6-1.5-5.7-2.9-12.4-4.2c-6.7-1.3-10.6-2.3-11.8-3.1
			c-1.2-0.8-1.8-1.7-1.8-2.6c0-0.5,0.2-1.2,0.5-2c1.3-0.8,2.7-1.2,4.1-1.2c1.5,0,4.6,0.1,9.3,0.3h4.2c1.4,0,5.4-0.1,12-0.3h21.1
			l43.6-0.8l46.1-1.8h4.1l6.5-0.2c1.8,0,3.4,0.5,4.9,1.5c0.6,1.6,1,2.8,1.1,3.5l-0.2,6.1l1.4,27.2c0,1.1-0.1,2.5-0.3,4.2
			c-1.6,0.7-3.1,1.1-4.4,1.1c-0.9,0-1.6-0.3-2.1-0.9c-0.8-1.1-1.3-3.2-1.5-6.4c-0.4-4.3-2-10-4.7-16.8c-1.3-3.2-3.5-5.5-6.5-6.7
			c-6.1-2.3-16.3-3.5-30.6-3.5c-6.8,0-13.1,0.2-18.9,0.5c-5.9,0.4-9.4,0.5-10.8,0.5l-11.8-0.2c-4.8,0-8.8,0.7-12,2.1
			c-2.1,0.9-3.2,3.1-3.2,6.5v2.3c0.3,5.2,0.5,10.9,0.5,17.2l-0.5,41.3c0,4,0.3,7.9,0.9,11.5l4.4,0.3l8.5-0.5h28.9
			c11.6,0,19.7-0.8,24.2-2.4c3-1.1,5.3-2.8,6.8-5c0.5-0.7,1.8-4.7,3.8-12l2-12.6c1.2-0.6,2.1-0.9,2.7-0.9c0.5,0,1.3,0.3,2.4,0.8
			c0.4,2.3,0.7,5.9,0.8,10.6l1.8,55.9c-1.7,0.7-3,1.1-3.9,1.1l-1.7-0.3c-1.6-10.1-4.2-18.1-7.6-23.8c-1.2-2-2.6-3.2-4.1-3.5
			c-2.6-0.6-14.7-0.9-36.1-0.9c-6.7,0-11.3,0.1-13.8,0.2c-6.1,0.3-9.7,0.5-10.9,0.5h-1.5c-3,0-5.2,0.4-6.5,1.2
			c-0.4,1.2-0.6,2.1-0.6,2.6v10.5c0,1.2,0,6.3,0.2,15.2l-0.3,50.2c0,1.4,0.4,3.2,1.2,5.3c2.1,1.7,6,2.9,11.6,3.4
			c5.6,0.6,10.9,1.9,15.9,4c2.8,1.3,4.2,2.8,4.2,4.4c0,0.7-0.2,1.4-0.6,2s-1.1,1.1-2.1,1.4c-8.3-1.7-19.7-2.6-34.4-2.6
			c-7.8,0-16,0.7-24.7,2.1c-6,0.9-12.8,1.4-20.5,1.4L3741.4,543.4z"/>
		<path class="st52" d="M3994.5,536.3c2.2-0.9,4.5-1.5,6.8-1.7c15.5-1,24.3-2.9,26.6-5.5c2.2-2.7,3.3-15.7,3.3-39l-0.2-15.9v-16.7
			l-0.6-18.4l0.3-10.8l-0.2-11.8v-14l-0.3-6.2l0.3-7.9c0.1-1.8,0.2-3.9,0.2-6.4c0-6.4-0.3-13.1-0.9-20.2c-0.4-1.4-1-2.8-1.7-4.1
			c-3.7-1.9-9.8-3.2-18.1-3.9s-13.1-1.4-14.2-2.2c-0.8-0.6-1.3-2.2-1.4-4.7h12.8l40.3,0.9c10.3,0,24.1-0.3,41.3-0.9
			c0,1.6-0.1,3.1-0.3,4.6c-2,0.5-5.4,1.1-10.2,1.7c-9.6,1.1-15.5,2.2-17.6,3.2c-1.3,0.5-2.3,1.4-2.9,2.6c-1,1.8-1.6,5.2-1.8,10.2
			l-0.8,19.6l0.6,67.6V483c-0.2,8.4-0.3,14.1-0.3,17.2c0,11.3,0.3,18.6,0.8,21.7c0.6,3.1,1.5,5.4,2.9,6.8c1.4,1.4,3.6,2.5,6.8,3.3
			c4.7,1.1,8.3,1.7,10.9,1.8c5.7,0.2,9.3,1,10.8,2.4c0.3,1.3,0.5,2.4,0.5,3.3v1.2c-9.2,0.3-16,0.5-20.4,0.5c-2.5,0-7-0.2-13.5-0.5
			l-21,0.3l-35.7-0.2h-2.9L3994.5,536.3z"/>
		<path class="st52" d="M4182.9,355.5l-0.2-7.3c15.7,0,27.2-0.4,34.5-1.2c2.8-0.3,4.8-0.5,5.9-0.5c0.9,0,2.3,0.1,4.1,0.2
			c4.2,3.5,8.2,7.6,11.8,12.1c0.8,0.9,1.7,1.9,2.7,3l32,35.4l4.6,5.5c6.5,7.6,12.4,14.1,17.7,19.4c5.3,5.4,15.7,16.5,31,33.5
			l36.3,40.2c3.5,3.9,8.1,8.9,13.7,14.7l0.2-2.4c-0.6-14.1-0.9-21.5-0.9-22.3l0.6-9.1l-0.3-14.3V456c0-4.1-0.4-16.9-1.1-38.4
			c-0.1-2.9-0.5-8.5-1.2-16.6c-0.7-8.1-1.1-15.3-1.1-21.5c0-11.1-0.7-17.6-2-19.4c-0.9-1.3-5.2-2.7-12.9-4.1
			c-1.8-0.1-4.7-0.4-8.5-0.9c-4.6-0.2-7.2-0.5-8-0.8c-0.8-0.3-1.6-1.2-2.4-2.6c0.2-1.6,0.7-3.1,1.4-4.6c2.7-0.8,5.4-1.2,8-1.2
			c2.8,0,6.3,0.4,10.5,1.1c4.2,0.7,8,1.1,11.3,1.1c4.7,0,11.9-0.3,21.7-0.9c5.6-0.4,9.4-0.6,11.5-0.6h2.6l-0.3,4.7
			c-1.6,0.7-3.8,1.1-6.7,1.3c-2.8,0.2-5.5,0.6-7.9,1.3c-3.6,1.1-5.8,2.1-6.5,2.9c-2.4,2.6-3.6,5.3-3.6,8l1.7,48l1.2,22l-0.2,6.4
			l0.9,30.5c0.6,20.8,0.9,39,0.9,54.3c0,3.3-0.2,10.6-0.6,21.7l-7.1,0.6c-3.5-4-15.7-16.8-36.6-38.2c-4.9-5-8.1-8.4-9.9-10.5
			l-13.1-15c-5.1-5.6-8.4-9.1-9.9-10.6s-2.6-2.6-3.3-3.3c-11-12.5-25.4-28.2-43-47c-4.8-5.1-11.7-13-21-23.7
			c-5.8-6.8-9.4-10.9-10.9-12.4s-3.6-3.2-6.2-5.2l-0.5,5.2c0,19.7,0.5,47,1.5,81.7l1.1,50.2c0.1,4.2,0.4,8.3,0.8,12.3l5.3,1.2
			c9.6,0.9,19.1,2.3,28.4,4.1c0.7,0.6,1.3,1.1,1.8,1.4l-0.2,5.8c-1.6,0.5-2.9,0.8-3.9,0.8c-1.1,0-2.5-0.1-4.1-0.3
			c-10-0.8-22.2-1.2-36.6-1.2c-10.1,0-19,0.3-26.7,0.8l-2.1,0.2c-0.9,0-2.2-0.1-3.9-0.3l-0.2-4.6l3.9-1.8l7.1-1.1
			c6.4-0.9,11-1.9,14-3c1.9-0.7,3.5-1.8,4.7-3.2c1.1-7,1.7-17.2,1.7-30.7c0-6.3-0.2-17.8-0.5-34.5v-20.6l-0.3-43.1
			c-0.2-19.2-0.9-30.6-2-34c-0.6-1.8-1.9-3.4-3.8-4.9c-3.8-2.7-8.9-4.5-15.1-5.2C4188.8,356.6,4184.8,356,4182.9,355.5z"/>
		<path class="st52" d="M4701.8,356.9l1.7,23.1c0.6,7,0.9,11.7,0.9,14.3l-4.2,0.8c-6.8-15.4-15.2-26.9-25.3-34.6
			c-10.1-7.7-22.4-11.5-37-11.5c-17.8,0-31.7,2.2-41.6,6.5c-14.4,6.2-26.7,16.9-36.9,32.2c-10.2,15.3-15.3,33.7-15.3,55.2
			c0,12.4,1.9,23.6,5.6,33.5c3.7,9.9,9,19.1,15.9,27.7c6.8,8.6,14.9,16,24.2,22.2c6.1,4.2,13.3,7.3,21.7,9.4
			c4.8,1.1,11.8,1.7,21.2,1.7c6.1,0,12.8-0.9,20.2-2.6c7.4-1.7,13-4,16.7-6.9c3.7-2.9,6.3-6.1,7.7-9.8s2-10.7,2-21.2
			c0-17.5-1.2-27.7-3.5-30.6c-2.3-2.9-9.7-4.8-22-5.7l-6.1-0.5l-4.1,0.2c-0.6-0.1-1.4-0.3-2.4-0.5l-2.3-3.8c0-0.5,0.4-1.2,1.1-2
			c5.3-0.8,16.7-1.2,34.3-1.2c3.9,0,10.4,0.1,19.3,0.3l15.6,0.6l14.1-0.2c2.7,0,6,0.1,9.9,0.3c0.7,0.1,1.2,0.3,1.4,0.5
			c0.2,0.3,0.3,0.7,0.3,1.3c0,1.1-0.3,2.5-0.8,4.2c-4.2,0.9-7.5,1.4-9.9,1.4l-9.9-0.2c-3.3,0-6,1.2-8,3.5c-1,1.1-1.5,4.9-1.5,11.4
			l0.2,19.9c0,13.7-0.6,22.4-1.7,26.1c-0.6,2.2-1.9,4.2-3.8,6c-1.9,1.8-6,3.9-12.1,6.3c-8.8,3.5-16.8,5.9-24,7.1
			c-13.4,2.3-26.3,3.5-38.7,3.5c-20,0-36.5-2.6-49.3-7.7c-12.8-5.1-23.8-12.2-33.1-21.3c-9.3-9.1-15.9-18.3-19.8-27.6
			c-6-13.7-9-27.6-9-41.7c0-17.7,4.7-35,14-52c9.4-16.9,24.5-30.7,45.3-41.4c14.7-7.5,34.6-11.2,59.8-11.2c17.4,0,31.6,1.5,42.7,4.6
			C4686.5,349.6,4695.3,353,4701.8,356.9z"/>
	</g>
</g>
</svg>
