<svg id="Layer_1" data-name="Layer 1" xmlns="http://www.w3.org/2000/svg" xmlns:xlink="http://www.w3.org/1999/xlink" viewBox="0 0 6968.34 637.75"><defs><style>.cls-1{fill:url(#linear-gradient);}.cls-2{fill:url(#linear-gradient-2);}.cls-3{fill:url(#linear-gradient-3);}.cls-4{fill:url(#linear-gradient-4);}.cls-5{fill:url(#linear-gradient-5);}.cls-6{fill:url(#linear-gradient-6);}.cls-7{fill:url(#linear-gradient-7);}.cls-8{fill:url(#linear-gradient-8);}.cls-9{fill:url(#linear-gradient-9);}.cls-10{fill:url(#linear-gradient-10);}.cls-11{fill:url(#linear-gradient-11);}.cls-12{fill:url(#linear-gradient-12);}.cls-13{fill:url(#linear-gradient-13);}.cls-14{fill:url(#linear-gradient-14);}.cls-15{fill:url(#linear-gradient-15);}.cls-16{fill:url(#linear-gradient-16);}.cls-17{fill:#2d6995;}.cls-18{fill:url(#linear-gradient-17);}.cls-19{fill:url(#linear-gradient-18);}.cls-20{fill:url(#linear-gradient-19);}.cls-21{fill:url(#linear-gradient-20);}.cls-22{fill:url(#linear-gradient-21);}.cls-23{fill:url(#linear-gradient-22);}.cls-24{fill:url(#linear-gradient-23);}.cls-25{fill:url(#linear-gradient-24);}.cls-26{fill:url(#linear-gradient-25);}.cls-27{fill:url(#linear-gradient-26);}.cls-28{fill:url(#linear-gradient-27);}.cls-29{fill:url(#linear-gradient-28);}.cls-30{fill:url(#linear-gradient-29);}.cls-31{fill:url(#linear-gradient-30);}.cls-32{fill:url(#linear-gradient-31);}.cls-33{fill:#767f84;}.cls-34{fill:url(#linear-gradient-32);}.cls-35{fill:url(#linear-gradient-33);}.cls-36{fill:url(#linear-gradient-34);}.cls-37{fill:url(#linear-gradient-35);}.cls-38{fill:url(#linear-gradient-36);}.cls-39{fill:url(#linear-gradient-37);}.cls-40{fill:url(#linear-gradient-38);}.cls-41{fill:url(#linear-gradient-39);}.cls-42{fill:url(#linear-gradient-40);}.cls-43{fill:url(#linear-gradient-41);}.cls-44{fill:url(#linear-gradient-42);}.cls-45{fill:url(#linear-gradient-43);}.cls-46,.cls-47{fill:#505352;}.cls-47{font-size:300px;font-family:TimesNewRomanPSMT, Times New Roman;letter-spacing:0.25em;}.cls-48{letter-spacing:0.21em;}</style><linearGradient id="linear-gradient" x1="342.9" y1="196.19" x2="631.92" y2="196.19" gradientTransform="matrix(1, 0, 0, -1, 0, 876)" gradientUnits="userSpaceOnUse"><stop offset="0.01" stop-color="#0ab7e9"/><stop offset="1" stop-color="#14b7e8"/></linearGradient><linearGradient id="linear-gradient-2" x1="489.45" y1="347" x2="533.35" y2="347" gradientTransform="matrix(1, 0, 0, -1, 0, 876)" gradientUnits="userSpaceOnUse"><stop offset="0.01" stop-color="#aeddea"/><stop offset="1" stop-color="#14b7e8"/></linearGradient><linearGradient id="linear-gradient-3" x1="467.26" y1="392.26" x2="509.57" y2="392.26" xlink:href="#linear-gradient-2"/><linearGradient id="linear-gradient-4" x1="511.33" y1="303.73" x2="551.64" y2="303.73" xlink:href="#linear-gradient-2"/><linearGradient id="linear-gradient-5" x1="537.4" y1="363.5" x2="574.65" y2="363.5" xlink:href="#linear-gradient-2"/><linearGradient id="linear-gradient-6" x1="495.39" y1="435.94" x2="535.93" y2="435.94" xlink:href="#linear-gradient-2"/><linearGradient id="linear-gradient-7" x1="555.25" y1="324.49" x2="590.5" y2="324.49" xlink:href="#linear-gradient-2"/><linearGradient id="linear-gradient-8" x1="556" y1="420.1" x2="590.86" y2="420.1" xlink:href="#linear-gradient-2"/><linearGradient id="linear-gradient-9" x1="523.93" y1="263" x2="559.04" y2="263" xlink:href="#linear-gradient"/><linearGradient id="linear-gradient-10" x1="577.24" y1="384.7" x2="608.69" y2="384.7" xlink:href="#linear-gradient-2"/><linearGradient id="linear-gradient-11" x1="565.73" y1="285.5" x2="598.33" y2="285.5" xlink:href="#linear-gradient"/><linearGradient id="linear-gradient-12" x1="585.37" y1="345.39" x2="612.1" y2="345.39" xlink:href="#linear-gradient-2"/><linearGradient id="linear-gradient-13" x1="434.84" y1="438.55" x2="469.67" y2="438.55" xlink:href="#linear-gradient-2"/><linearGradient id="linear-gradient-14" x1="595.51" y1="307.14" x2="620.89" y2="307.14" xlink:href="#linear-gradient"/><linearGradient id="linear-gradient-15" x1="504.43" y1="472.84" x2="533.03" y2="472.84" xlink:href="#linear-gradient-2"/><linearGradient id="linear-gradient-16" x1="449.9" y1="475.15" x2="476.7" y2="475.15" xlink:href="#linear-gradient-2"/><linearGradient id="linear-gradient-17" x1="264.89" y1="367.85" x2="308.26" y2="367.85" gradientTransform="matrix(1, 0, 0, -1, 0, 876)" gradientUnits="userSpaceOnUse"><stop offset="0" stop-color="#2b6894"/><stop offset="0.65" stop-color="#247eb6"/><stop offset="0.99" stop-color="#1b89c6"/></linearGradient><linearGradient id="linear-gradient-18" x1="317.7" y1="364.98" x2="356.49" y2="364.98" xlink:href="#linear-gradient-17"/><linearGradient id="linear-gradient-19" x1="220.62" y1="372.13" x2="257.5" y2="372.13" xlink:href="#linear-gradient-17"/><linearGradient id="linear-gradient-20" x1="259.93" y1="320.95" x2="296.93" y2="320.95" xlink:href="#linear-gradient-17"/><linearGradient id="linear-gradient-21" x1="346.69" y1="319.47" x2="376.85" y2="319.47" xlink:href="#linear-gradient-17"/><linearGradient id="linear-gradient-22" x1="219.95" y1="325.9" x2="252.19" y2="325.9" xlink:href="#linear-gradient-17"/><linearGradient id="linear-gradient-23" x1="301.09" y1="277.5" x2="336.29" y2="277.5" xlink:href="#linear-gradient-17"/><linearGradient id="linear-gradient-24" x1="183.59" y1="384" x2="214.09" y2="384" xlink:href="#linear-gradient-17"/><linearGradient id="linear-gradient-25" x1="261.8" y1="278.3" x2="294.63" y2="278.3" xlink:href="#linear-gradient-17"/><linearGradient id="linear-gradient-26" x1="183.05" y1="337.63" x2="212.18" y2="337.63" xlink:href="#linear-gradient-17"/><linearGradient id="linear-gradient-27" x1="221.56" y1="286.23" x2="252.97" y2="286.23" xlink:href="#linear-gradient-17"/><linearGradient id="linear-gradient-28" x1="382.41" y1="372.99" x2="407.83" y2="372.99" xlink:href="#linear-gradient-17"/><linearGradient id="linear-gradient-29" x1="185.7" y1="297.17" x2="213.33" y2="297.17" xlink:href="#linear-gradient-17"/><linearGradient id="linear-gradient-30" x1="382.1" y1="298.36" x2="401.05" y2="298.36" xlink:href="#linear-gradient-17"/><linearGradient id="linear-gradient-31" x1="414.85" y1="345.17" x2="428.8" y2="345.17" xlink:href="#linear-gradient-17"/><linearGradient id="linear-gradient-32" x1="395.9" y1="551.3" x2="438.7" y2="551.3" gradientTransform="matrix(1, 0, 0, -1, 0, 876)" gradientUnits="userSpaceOnUse"><stop offset="0" stop-color="#b4b4b4"/><stop offset="0.81" stop-color="#80878d"/><stop offset="0.99" stop-color="#767f85"/></linearGradient><linearGradient id="linear-gradient-33" x1="424.55" y1="590.33" x2="464.99" y2="590.33" xlink:href="#linear-gradient-32"/><linearGradient id="linear-gradient-34" x1="362.6" y1="581.76" x2="399" y2="581.76" xlink:href="#linear-gradient-32"/><linearGradient id="linear-gradient-35" x1="318.56" y1="510.79" x2="357.25" y2="510.79" xlink:href="#linear-gradient-32"/><linearGradient id="linear-gradient-36" x1="386.44" y1="615.68" x2="426.24" y2="615.68" xlink:href="#linear-gradient-32"/><linearGradient id="linear-gradient-37" x1="305.53" y1="568.85" x2="340.53" y2="568.85" xlink:href="#linear-gradient-32"/><linearGradient id="linear-gradient-38" x1="327.45" y1="603.35" x2="360.7" y2="603.35" xlink:href="#linear-gradient-32"/><linearGradient id="linear-gradient-39" x1="354.47" y1="634.53" x2="388.41" y2="634.53" xlink:href="#linear-gradient-32"/><linearGradient id="linear-gradient-40" x1="350.7" y1="454.58" x2="383.69" y2="454.58" xlink:href="#linear-gradient-32"/><linearGradient id="linear-gradient-41" x1="293.3" y1="495.2" x2="315.9" y2="495.2" xlink:href="#linear-gradient-32"/><linearGradient id="linear-gradient-42" x1="318.3" y1="445.83" x2="341.85" y2="445.83" xlink:href="#linear-gradient-32"/><linearGradient id="linear-gradient-43" x1="368.52" y1="508.75" x2="410.41" y2="508.75" xlink:href="#linear-gradient-32"/></defs><title>Radical staffing-logo</title><g id="Bottom_Gradient_Fill" data-name="Bottom Gradient Fill"><path class="cls-1" d="M343.3,609.9c5.6,6.2,11,12.5,16.7,18.6,24.5,26,51.6,48.7,83.4,65.4,13.9,7.3,28.4,13.2,44,16a58.92,58.92,0,0,0,20.1.4c14.7-2.4,23-11.2,24.7-26,1.2-10.5-.1-20.8-2.1-31a11.9,11.9,0,0,1,2.8-10.6,26.1,26.1,0,0,1,22.5-9.4,11.07,11.07,0,0,1,9,4.9c1.1,1.7,2.7,2.6,4.6,1.5a3.39,3.39,0,0,0,1.2-4.8c-3.3-6.5-.6-11.7,3.7-16.4a23.57,23.57,0,0,1,14.5-7.7c4.3-.6,8.2.1,10.9,4.1,1.5,2.2,4.1,1.9,5.1-.5.6-1.4.4-3.2.5-4.8.1-2.5-.3-5.1.3-7.4a26.92,26.92,0,0,1,13.6-16.5c6.3-3.3,10.5-1.3,11.4,5.8.8,6,1.1,12.2,1.4,18.3,1,27.9-.1,55.6-6.5,82.9-4.2,17.7-10.4,34.7-21.3,49.5-18.8,25.6-44.3,35.9-75.5,32.7-25.9-2.7-48.8-13.4-70.3-27.4-23.9-15.6-44.3-35-62.4-56.9-19.9-24-37.5-49.6-51.4-77.6-.5-.9-.9-1.9-1.3-2.8A.68.68,0,0,0,343.3,609.9Z" transform="translate(-48.16 -137.72)"/><path class="cls-2" d="M511.2,508.1c12.2.1,22.1,9.6,22.1,21.3s-9.6,20.6-21.7,20.5-22.2-9.7-22.2-21.3S499.2,508,511.2,508.1Z" transform="translate(-48.16 -137.72)"/><path class="cls-3" d="M491.4,464.4c6.7.2,13.1,3,16.5,10.4s1.5,14-3.5,19.9c-6.2,7.4-16.8,10.3-25.5,7.1-9.5-3.5-14-13.1-10.4-22.6C471.7,470.6,480.6,464.6,491.4,464.4Z" transform="translate(-48.16 -137.72)"/><path class="cls-4" d="M527.8,590.8a16.29,16.29,0,0,1-14.5-9.3c-3.3-6.5-2.2-12.8,2.1-18.4,5.5-7.3,13-10.5,22.2-9,11.4,1.9,17.2,13.1,12.5,23.7C546.5,585.6,538.2,590.8,527.8,590.8Z" transform="translate(-48.16 -137.72)"/><path class="cls-5" d="M556.3,530.3c-10.5,0-18.9-8.2-18.9-18.2.1-9.7,8.2-17.4,18.4-17.4,10.4,0,18.9,8.2,18.8,18.3C574.6,522.7,566.5,530.3,556.3,530.3Z" transform="translate(-48.16 -137.72)"/><path class="cls-6" d="M508.8,455.7a46.71,46.71,0,0,1-7.8-2.4c-4.8-2.4-6.7-7.3-5-12.5a19.46,19.46,0,0,1,2.2-4.6c5.5-8.4,17.8-13.4,27.6-11.3,9.3,2,13,10.2,7.8,18.2C528.1,451.4,519.8,454.9,508.8,455.7Z" transform="translate(-48.16 -137.72)"/><path class="cls-7" d="M555.2,555.9c.2-11.3,11.2-22.2,22.3-22.1,7.4.1,12.5,5,13,12.3.7,11.4-11.1,23.6-22.5,23.1C560.3,569,555.1,563.5,555.2,555.9Z" transform="translate(-48.16 -137.72)"/><path class="cls-8" d="M556,455.8a17.16,17.16,0,0,1,17.4-17.1A17.41,17.41,0,0,1,590.9,456a17.22,17.22,0,0,1-17.4,17.1A17.41,17.41,0,0,1,556,455.8Z" transform="translate(-48.16 -137.72)"/><path class="cls-9" d="M536.6,630c-8.5,0-13.7-6.1-12.5-14.6,1.5-10.3,12.1-19.5,22.4-19.4,8.1,0,13.3,5.9,12.5,14C557.8,620.5,547.1,630,536.6,630Z" transform="translate(-48.16 -137.72)"/><path class="cls-10" d="M608.7,491.1c0,9.1-7.2,16.7-15.9,16.6a15.68,15.68,0,0,1-15.5-16.2,16.29,16.29,0,0,1,16.2-16.6C602,475,608.7,482.1,608.7,491.1Z" transform="translate(-48.16 -137.72)"/><path class="cls-11" d="M577.7,606.3c-8.2.1-13-5.7-11.7-13.9,1.4-9.3,11.4-17.8,20.8-17.7,7.5.1,12.3,5.5,11.5,13.1C597.1,597.4,587.3,606.2,577.7,606.3Z" transform="translate(-48.16 -137.72)"/><path class="cls-12" d="M612.1,527.9c-.3,6.6-1.9,11.5-5.8,15.4-6.5,6.6-15.6,4.9-19.4-3.5-3.3-7.3-1.1-17.2,4.9-22.5,6.7-5.9,15.3-4,18.7,4.3A30.46,30.46,0,0,1,612.1,527.9Z" transform="translate(-48.16 -137.72)"/><path class="cls-13" d="M458,424.4c4,.3,8.8,1.1,10.9,6.2s-.5,9.1-4,12.5c-6,5.8-13.3,8.5-21.7,7-8-1.4-10.8-8.3-6.4-15.2C440.8,428.9,449.4,424.4,458,424.4Z" transform="translate(-48.16 -137.72)"/><path class="cls-14" d="M595.5,571.2a21.23,21.23,0,0,1,9.1-15.8c3.3-2.4,7.1-3.4,10.9-1.4s5.1,5.5,5.3,9.5a21.19,21.19,0,0,1-7.7,17.8c-3.5,3-7.5,4.6-12.2,2.6C597.4,582.3,595.3,578,595.5,571.2Z" transform="translate(-48.16 -137.72)"/><path class="cls-15" d="M522.7,394.7a40.72,40.72,0,0,1,7.3,2.4c3.6,1.9,4,5.5,1.4,8.7-4.7,5.7-17.3,7.7-23.7,3.8-3.8-2.3-4.3-6-1.2-9.3C510.6,396.2,515.8,395.2,522.7,394.7Z" transform="translate(-48.16 -137.72)"/><path class="cls-16" d="M456.4,408.2c-2.4-.3-5.3,0-6.2-2.7s1.3-4.6,3.3-6.1a27.82,27.82,0,0,1,17.5-5.9c2.2,0,4.8.2,5.6,2.8.7,2.4-1.1,4-2.8,5.4A29.4,29.4,0,0,1,456.4,408.2Z" transform="translate(-48.16 -137.72)"/></g><g id="Middle_Gradient_Fill" data-name="Middle Gradient Fill"><path class="cls-17" d="M303.1,322.2c-8.1,1.6-16.2,3.1-24.2,5-34.9,8.1-68.4,19.9-99.1,38.7-14,8.6-27,18.5-37.7,31.2-5.3,6.2-9.5,13.1-11.5,21.1-2.9,11.1.3,20.4,8.9,27.8,8.3,7.2,18.2,11.7,28.5,15,6.5,2,9.9,6.2,10.9,12.6,1.2,7.1.2,13.9-3.9,20-2.2,3.2-5,5.6-9.2,5.9-1.7.1-3.4.7-3.5,2.7a3.15,3.15,0,0,0,3.2,3.4,11.85,11.85,0,0,1,8.8,4.1,21.47,21.47,0,0,1,4.8,12c.5,5.3-.1,10.5-3.1,15.1a9.94,9.94,0,0,1-7.6,4.7c-.9.1-2.2.7-2.4,1.4a4.37,4.37,0,0,0,.6,3.1,4.3,4.3,0,0,0,2.4,1.8c8.5,2.6,12.1,9.3,14,17a26.7,26.7,0,0,1,.2,10.9c-.6,4.2-3.8,5.9-7.9,4.8a31.76,31.76,0,0,1-6.7-2.5c-24.5-12.2-48-25.9-69.2-43.4-16.1-13.2-30.3-28-40.4-46.5-7.9-14.4-11.9-29.8-10.6-46.3,1.2-15,6.7-28.5,15.3-40.7,11.7-16.8,27.2-29.6,44.5-40.2,24-14.7,50.1-24.5,77.5-30.4,15.1-3.2,30.3-5.8,45.6-7.7a336,336,0,0,1,62.6-2.2c3.1.2,6.1.5,9.2.8A2,2,0,0,0,303.1,322.2Z" transform="translate(-48.16 -137.72)"/><path class="cls-18" d="M285.8,530a20.53,20.53,0,0,1-20.9-20.1,23.34,23.34,0,0,1,22.4-23.6c11.4-.3,20.8,9.1,20.9,20.7A22.88,22.88,0,0,1,285.8,530Z" transform="translate(-48.16 -137.72)"/><path class="cls-19" d="M317.7,511.5c.6-6.7,2.7-12.4,7.4-17a17.64,17.64,0,0,1,27.2,2.5c5.8,8.2,5.6,20.3-.7,28.2-4.2,5.2-9.5,8.2-16.4,7.5-7.7-.8-12.6-5.5-15.4-12.5C318.7,517.4,318.4,514.4,317.7,511.5Z" transform="translate(-48.16 -137.72)"/><path class="cls-20" d="M257.5,503.7a23.07,23.07,0,0,1-5,14.1c-8.5,10.5-23.6,8.7-29.5-3.6a22.67,22.67,0,0,1,.2-20.6c3.7-7.4,10.7-11.3,18.5-10.4,6.6.8,13,6.9,14.9,14.4C257.1,499.6,257.2,501.7,257.5,503.7Z" transform="translate(-48.16 -137.72)"/><path class="cls-21" d="M279.2,536.4A17.75,17.75,0,0,1,297,554.1c.1,10.5-8.9,19.6-19.3,19.6A17.67,17.67,0,0,1,260,556C259.9,545.5,268.8,536.4,279.2,536.4Z" transform="translate(-48.16 -137.72)"/><path class="cls-22" d="M376.9,554.5c-.7,6.6-2.4,12.6-6.4,17.7-6.6,8.4-16.5,7.3-21.2-2.2-4.5-9-2.8-22.1,3.8-29.6,6.8-7.9,16.5-6.7,20.8,2.8C375.3,546.7,375.8,550.7,376.9,554.5Z" transform="translate(-48.16 -137.72)"/><path class="cls-23" d="M219.9,547.2c.7-2.7,1-5.6,2-8.1,3.7-9.1,13.4-11.6,21.2-5.5,7.3,5.7,10.8,16.6,8.1,25.5-3.4,11.3-14.9,14.4-23.5,6.3C222.7,560.4,220.3,554.3,219.9,547.2Z" transform="translate(-48.16 -137.72)"/><path class="cls-24" d="M318.2,616.1c-9.7-.1-17.2-7.9-17.2-17.8.1-9.7,8.3-17.5,18.3-17.4a17.33,17.33,0,0,1,16.9,17.5A17.74,17.74,0,0,1,318.2,616.1Z" transform="translate(-48.16 -137.72)"/><path class="cls-25" d="M183.6,489.7a19.82,19.82,0,0,1,3-11.3c4.1-6.5,11.7-8.1,18.1-3.7,8.9,6.2,12.2,20.7,6.9,30.1-4.2,7.4-12.4,9.2-19.1,4C186.2,504,183.7,497.3,183.6,489.7Z" transform="translate(-48.16 -137.72)"/><path class="cls-26" d="M294.6,598.4A15.42,15.42,0,0,1,278.8,614a17.35,17.35,0,0,1-17.1-17.1c0-8.8,6.8-15.5,15.8-15.5A17,17,0,0,1,294.6,598.4Z" transform="translate(-48.16 -137.72)"/><path class="cls-27" d="M183,536c1.1-3.4,1.8-7,3.5-10,3.8-6.8,11.6-7.9,17.6-3.1,7.3,5.9,10.1,17.5,6.3,26s-13,10.5-19.9,4C185.8,548.4,183.9,542.6,183,536Z" transform="translate(-48.16 -137.72)"/><path class="cls-28" d="M233.7,574.5c9.6.1,18.7,8.8,19.2,18.5.4,8.5-7.3,14-16.2,11.4-8.4-2.5-13.7-8.1-15-16.9C220.7,581.1,225.1,574.3,233.7,574.5Z" transform="translate(-48.16 -137.72)"/><path class="cls-29" d="M383.1,504.8c.1-6.2,1.7-11.9,6-16.5,5.4-5.7,12.4-4.7,16.2,2.1,4.4,8,2.6,21-3.8,27.5-5.2,5.3-12.2,4.6-15.7-2-1.7-3.3-2.4-7.2-3.5-10.8A4.11,4.11,0,0,1,383.1,504.8Z" transform="translate(-48.16 -137.72)"/><path class="cls-30" d="M185.7,574.1c-.1-8.7,6.6-13.1,14.6-9.8s13.5,12.3,13,20.8c-.4,6.6-5.8,10.6-12.2,9C192.7,592,185.8,583.1,185.7,574.1Z" transform="translate(-48.16 -137.72)"/><path class="cls-31" d="M382.1,582.1a22.53,22.53,0,0,1,7.4-16.1c2.1-1.9,4.7-3.1,7.5-2s3.7,3.9,3.9,6.8a22.75,22.75,0,0,1-5.5,16.7,10.22,10.22,0,0,1-1.8,1.8c-2.2,1.7-4.6,3.2-7.5,1.9s-3.7-4.1-3.9-7C382.2,583.6,382.1,583,382.1,582.1Z" transform="translate(-48.16 -137.72)"/><path class="cls-32" d="M428.8,527.4c-1.1,3.7-2.2,8-3.6,12.3a10.89,10.89,0,0,1-3,4.1c-2.2,2.1-4.6,1.7-5.8-1.1a18.78,18.78,0,0,1-1.5-6.2,29,29,0,0,1,3.2-14.7,15.65,15.65,0,0,1,2.3-3.4c2.7-2.9,5.5-2.4,6.8,1.4C428,522,428.2,524.3,428.8,527.4Z" transform="translate(-48.16 -137.72)"/></g><g id="Top_Gradient_Fill" data-name="Top Gradient Fill"><path class="cls-33" d="M569.8,432.5c2.2-6.5,4.4-12.6,6.4-18.8A377.79,377.79,0,0,0,591,351.5c2.2-15.2,3.6-30.6,3.1-46-.5-17.5-2.4-34.8-8.7-51.3-2.7-7.1-6.3-13.6-11.6-19-7.8-7.9-17-10.3-27.7-7-10.2,3.1-18.6,9.2-26.7,15.9-.1.1-.3.2-.4.3-8.5,7.3-15.3,7.6-24.5,1-5.1-3.6-9.2-8.2-10-14.7a14.85,14.85,0,0,1,.9-6.2c.6-1.8,1-3.4-.9-4.5s-3.5-.2-4.5,1.4c-3.8,6-9.5,6.2-15.5,5.1a23.88,23.88,0,0,1-14.6-8.7c-3.1-3.8-4.4-7.9-2-12.6,1-1.9-.7-3.8-2.9-3.4a7.34,7.34,0,0,0-3.5,1.5c-5,4.9-11.2,5-17.4,4.3a23.06,23.06,0,0,1-12.7-5.2c-4.1-3.4-4.5-7.2-.6-10.7a76.56,76.56,0,0,1,10.2-7.5c23.3-15,47.5-28.2,73.9-37.2a166.55,166.55,0,0,1,40.6-8.9c21.5-1.6,41.8,1.6,59.8,14.6,12.4,9,21.1,20.9,27.3,34.7,6.8,15.2,10,31.2,11.1,47.7,2.7,40.1-6.1,78.2-20.4,115.2-10.7,27.9-23.8,54.6-40.7,79.3-.6.9-1.2,1.7-1.8,2.5A3.38,3.38,0,0,0,569.8,432.5Z" transform="translate(-48.16 -137.72)"/><path class="cls-34" d="M416.6,302.6c12,0,22,10.3,22.1,22.7.1,12-9.1,21.5-20.8,21.5-12,0-21.9-10.3-22-22.7C395.8,312.2,405,302.6,416.6,302.6Z" transform="translate(-48.16 -137.72)"/><path class="cls-35" d="M447.2,304.9a22.9,22.9,0,0,1-22.5-19.6c-1.3-9.3,6.2-18,16-18.8a23.37,23.37,0,0,1,22.8,14.2C468.5,293,460.4,304.9,447.2,304.9Z" transform="translate(-48.16 -137.72)"/><path class="cls-36" d="M399,294.7c0,10.3-7.7,18.4-17.6,18.5-10.1,0-18.8-8.9-18.8-19.4,0-10.2,7.7-18.2,17.2-18.5C389.7,274.9,399.2,283.8,399,294.7Z" transform="translate(-48.16 -137.72)"/><path class="cls-37" d="M357.2,371.3c-.1,6.8-4.7,11.1-12.1,11.4-11.4.5-24.5-10.1-26.4-21.5-1.3-7.6,4.4-13.7,12.7-13.5,10.7.2,22.5,9.4,25.1,19.8A25.34,25.34,0,0,1,357.2,371.3Z" transform="translate(-48.16 -137.72)"/><path class="cls-38" d="M408.8,276.4c-7.1-.5-13.3-2.8-18.1-8.1-7.7-8.5-4.6-19.5,6.3-23a24.49,24.49,0,0,1,25.3,7.1c6.8,7.9,4.4,18.2-5.4,22C414.4,275.5,411.5,275.8,408.8,276.4Z" transform="translate(-48.16 -137.72)"/><path class="cls-39" d="M340.6,307.4A17.35,17.35,0,0,1,323.4,325c-9.7.1-17.8-8.1-17.8-18a17.56,17.56,0,0,1,17.5-17.7A18.18,18.18,0,0,1,340.6,307.4Z" transform="translate(-48.16 -137.72)"/><path class="cls-33" d="M478.5,272.3c-7.8-.2-14.5-2.9-19.4-9.1-6.8-8.7-2.7-19.3,8.1-21.4a24.47,24.47,0,0,1,22.7,6.8c4.1,4,6.4,8.9,4.3,14.7-2.2,6-7.2,8.1-13.1,8.9A11.54,11.54,0,0,1,478.5,272.3Z" transform="translate(-48.16 -137.72)"/><path class="cls-40" d="M360.7,272.2c0,9.1-7.9,16.7-17.3,16.6a15.88,15.88,0,0,1-16-16.1c0-8.9,7.9-16.3,17.2-16.2S360.7,263.4,360.7,272.2Z" transform="translate(-48.16 -137.72)"/><path class="cls-33" d="M431.3,218.3c9.1.4,15.5,3.1,20,9.5,5,7.1,2.4,15.2-5.6,18.3-9.4,3.7-22.4-1-26.8-9.8-3.2-6.4-1-13.2,5.6-16.1C427,219,429.9,218.7,431.3,218.3Z" transform="translate(-48.16 -137.72)"/><path class="cls-41" d="M368.7,255.7c-3.2-1.2-6.6-1.9-9.4-3.7-4.7-2.9-6-8.5-3.9-13.6,3.9-9.5,18.3-14.3,27.2-8.9,6.4,3.9,7.7,11.6,2.8,17.8-4.2,5.3-9.8,7.6-16.4,7.7A4.87,4.87,0,0,0,368.7,255.7Z" transform="translate(-48.16 -137.72)"/><path class="cls-42" d="M373.1,436.3c-10.1-.2-20.6-9.2-22.2-19-.9-5.3,3-10.1,8.7-10.7,9.7-1,22,8.1,23.9,17.6C384.9,431.7,380.7,436.5,373.1,436.3Z" transform="translate(-48.16 -137.72)"/><path class="cls-33" d="M399,226.1c-4.2-.1-8.2-.9-11.7-3.5-5.3-3.9-6-10.1-1.6-14.9,6.1-6.7,19.3-7.9,26.6-2.5,5.7,4.3,6.1,10.8.9,15.7C409.3,224.7,404.3,225.9,399,226.1Z" transform="translate(-48.16 -137.72)"/><path class="cls-43" d="M293.3,374.8c0-5.3,3.3-7.7,8.5-6.2,6.9,2,13.9,11.1,14.1,18.2.1,4.9-3.1,7.5-7.9,6.4C300.8,391.5,293.3,382.2,293.3,374.8Z" transform="translate(-48.16 -137.72)"/><path class="cls-44" d="M341.8,436.9c-.2,2.7-1.9,4.4-4.7,3.7a28.15,28.15,0,0,1-8-3.3c-4.8-3.1-9-7-10.6-12.8-.9-3.1.7-5.1,3.9-4.9a13.71,13.71,0,0,1,3.5.8,29.19,29.19,0,0,1,14.2,12.2A22.63,22.63,0,0,1,341.8,436.9Z" transform="translate(-48.16 -137.72)"/><path class="cls-45" d="M387,347.2c13,0,23.8,10.9,23.4,23.5a17.23,17.23,0,0,1-15.6,16.5c-13.4,1.3-25-8-26.2-21.3C367.6,354.7,376.7,346.8,387,347.2Z" transform="translate(-48.16 -137.72)"/></g><path class="cls-46" d="M5093.7,411.11c.8,6.7,1.2,10.5,1.2,11.5l-.6,13.5a94.68,94.68,0,0,1-.8,11.1,6,6,0,0,1-2.3.6l-1.4-.3c-3.2-14.2-8.7-24.5-16.5-31s-17.2-9.7-28.3-9.7c-11.5,0-21,3.2-28.4,9.7s-11.1,14-11.1,22.6c0,6.6,2.6,12.6,7.7,18.1s18.4,13.6,39.6,24.5c16.2,8.4,27.8,15.2,34.8,20.5a54.13,54.13,0,0,1,15.8,18.5,51.61,51.61,0,0,1,5.3,23.4,59.15,59.15,0,0,1-8.4,30.5,54.61,54.61,0,0,1-22.7,21.5q-14.25,7.2-37.8,7.2a120,120,0,0,1-39.3-6.5c-7.4-2.6-11.9-4.8-13.5-6.4a7.2,7.2,0,0,1-2.4-5.2,37.3,37.3,0,0,1,.3-4.2c1.4-11.9,2.2-21.8,2.3-29.4.2-4.8.6-7.5,1.1-8.3a2.48,2.48,0,0,1,2.3-1.1,2.7,2.7,0,0,1,2.2,1,7,7,0,0,1,1.1,3.7c1.1,12.4,6.9,23.6,17.3,33.4s22,14.7,35.1,14.7a49.46,49.46,0,0,0,22.1-5,37.53,37.53,0,0,0,15.8-14.5c3.8-6.3,5.7-12.5,5.7-18.4q0-12.3-8.7-22.5c-5.8-6.8-17.4-14.7-34.8-23.8s-28.7-15.7-34-19.8c-8.5-6.8-14.9-14-19.1-21.6a43.36,43.36,0,0,1-4.7-20.5c0-14.1,5.6-26,16.7-35.7s26.1-14.6,44.8-14.6c10.3,0,19.2,1.2,26.7,3.5A60.6,60.6,0,0,1,5093.7,411.11Z" transform="translate(-48.16 -137.72)"/><path class="cls-46" d="M5208.2,426.81l6.2-22.9c.4-3,1-5,1.7-5.8a3,3,0,0,1,2.4-1.3c1.8,0,3.9,2.2,6.2,6.5q2.55,4.65,4.2,6a9.7,9.7,0,0,0,4.9,1.7l1.5-.2,6.5.6,35.8.5,42.3-.1h12.4l23.5-.4a30,30,0,0,1,3.8.3c6.9.6,11.1.9,12.7.9a4.61,4.61,0,0,0,3.6-1.5c.3-.4,2-3.7,5-10,1.3-2.8,2.9-4.3,4.9-4.3a9.87,9.87,0,0,1,3,.6,22.77,22.77,0,0,1,.8,5.4l-.2,6,.2,12.8c0,3.1-.3,13.2-.8,30.1a7.3,7.3,0,0,1-.6,3,5.86,5.86,0,0,1-2.9,1.1,2.76,2.76,0,0,1-2.1-1.1c-.6-.8-1.4-3.1-2.3-7-2-9-4.6-15.5-7.6-19.4a16.69,16.69,0,0,0-8.7-5.4c-3.8-1.1-12.9-1.7-27.2-1.7h-25.7c-.2,4.1-.3,7.7-.3,11.1l1.2,94.3q0,5.55-.6,21.3l.2,20.2-.2,11.2c0,3.5.6,6.1,1.8,7.6s4.5,3,9.9,4.4c9.3,2.3,15.5,3.7,18.7,4.3a14,14,0,0,1,4.7,1.2v4.6l-21.6-.5c-11.8-.1-20.7-.3-26.7-.7l-22.2,1.1-16.2.9a62.45,62.45,0,0,1-8.3-.3l-2.1-.9c.2-2.3.7-3.8,1.4-4.5s2.6-1.2,5.6-1.6a119.48,119.48,0,0,0,15-3.3q8.7-2.4,11.4-4.8a7.91,7.91,0,0,0,2.1-4.6c.9-4.5,1.4-13.2,1.4-26.3v-25.7l-.6-56.3-.6-12.1-.2-40.5h-24.4c-14.6,0-23.4.9-26.6,2.6-5,2.8-12.3,10.8-22.2,24.1-3.2,5-6.1,7.5-8.5,7.5l-1.4-.3a3.19,3.19,0,0,1-.6-1.7c0-1.2.8-4.9,2.4-10.9A117,117,0,0,0,5208.2,426.81Z" transform="translate(-48.16 -137.72)"/><path class="cls-46" d="M5465.3,593.51a7.92,7.92,0,0,1,3.8-1.2h3.5a28.75,28.75,0,0,0,3.6-.2q11.7-1.05,13.8-2.1c3.5-1.9,6.6-5.3,9.1-10q8-15.45,17.8-43.9c3.1-9,5.1-14.5,5.9-16.4,2.5-6.1,5-12.4,7.3-19.1l14.3-39.9c2.2-6.3,7.6-20.6,16.1-43.1,2.1-5.7,4.7-13.3,7.7-22.8l4.5-.3,5.3.2a212.49,212.49,0,0,1,11.5,27.8c1.8,5.3,4.8,13.1,8.9,23.5l23,62.4,12.3,33.8c6.5,19.2,10.7,31,12.7,35.4s3.9,7.3,5.6,8.7q.75.6,5.7,1.8t6.9,1.8a60.34,60.34,0,0,1,9.7,3.3,8.39,8.39,0,0,1,.6,2.6,9.61,9.61,0,0,1-.5,2.3c-3.2.1-5.5.2-6.8.2-5.2,0-14.3-.2-27.3-.5l-15.2-.3-18.4.2c-1.2,0-2.5-.1-3.7-.2s-2.4-.2-3.3-.2h-3.3a7.5,7.5,0,0,1-3-.9,11.5,11.5,0,0,1,.8-4.1,9.83,9.83,0,0,1,3.3-1.1l15.9-1.1a28.71,28.71,0,0,0,9.4-1.7,14.53,14.53,0,0,0,.9-4.1q0-2.7-3.9-14.1-2.7-7.65-4.8-14.4c-1.4-4.6-6.7-19.6-16.1-45a67.94,67.94,0,0,0-10.9-1.1l-32.4.5-9.6-.2a98.11,98.11,0,0,0-11.4.8c-1.3,3-2.2,5.2-2.6,6.5L5518.6,559c-5.7,15.9-8.5,24.6-8.5,26.3a15.19,15.19,0,0,0,1.4,4.6,66.38,66.38,0,0,0,8.5,1.7l20.6,1.8c1.1.9,1.7,1.7,1.7,2.4a9.61,9.61,0,0,1-.5,2.3c-4.6.1-8,.2-10.5.2-8.1,0-17.5-.3-28.2-.8-5-.2-8.5-.3-10.6-.3s-5.8.1-11.1.3c-3.4.2-5.9.3-7.4.3-2.4,0-5.6-.2-9.4-.5v-.9A16.74,16.74,0,0,1,5465.3,593.51Zm72.4-91.1c10.8.6,23.2.9,37,.9,7.9,0,14.8-.3,20.8-.8a111.13,111.13,0,0,0-3.5-11.1c-6.6-17.6-10.2-27.3-10.9-29.1l-13.8-35-1.5-2.7c-.6,1.2-2.8,6.4-6.7,15.6-6.5,15.8-11.1,28.1-14,36.9-1.3,3.9-2.7,7.9-4.1,11.8s-2.3,6.6-2.7,8.2a30,30,0,0,1-1.6,4.8Z" transform="translate(-48.16 -137.72)"/><path class="cls-46" d="M5767.4,600.61l.2-3.7c2.2-1.1,5.9-2.1,11.1-2.9s8.8-1.7,10.7-2.6a14.77,14.77,0,0,0,4.9-3.4c.9-4.5,1.4-12.5,1.4-24.2V445.71l.5-19.6c0-4.1-.8-6.8-2.4-8.4s-5.7-2.9-12.4-4.2-10.6-2.3-11.8-3.1a3.33,3.33,0,0,1-1.8-2.6,6.42,6.42,0,0,1,.5-2,7.79,7.79,0,0,1,4.1-1.2q2.25,0,9.3.3h4.2q2.1,0,12-.3H5819l43.6-.8,46.1-1.8h4.1l6.5-.2a8.58,8.58,0,0,1,4.9,1.5,20.78,20.78,0,0,1,1.1,3.5l-.2,6.1,1.4,27.2a37.3,37.3,0,0,1-.3,4.2,11.36,11.36,0,0,1-4.4,1.1,2.58,2.58,0,0,1-2.1-.9c-.8-1.1-1.3-3.2-1.5-6.4-.4-4.3-2-10-4.7-16.8a11.6,11.6,0,0,0-6.5-6.7c-6.1-2.3-16.3-3.5-30.6-3.5-6.8,0-13.1.2-18.9.5s-9.4.5-10.8.5l-11.8-.2a30,30,0,0,0-12,2.1c-2.1.9-3.2,3.1-3.2,6.5v2.3c.3,5.2.5,10.9.5,17.2l-.5,41.3a70.57,70.57,0,0,0,.9,11.5l4.4.3,8.5-.5h28.9c11.6,0,19.7-.8,24.2-2.4a13.68,13.68,0,0,0,6.8-5c.5-.7,1.8-4.7,3.8-12l2-12.6a6.91,6.91,0,0,1,2.7-.9,7.2,7.2,0,0,1,2.4.8,76.44,76.44,0,0,1,.8,10.6l1.8,55.9a11.7,11.7,0,0,1-3.9,1.1l-1.7-.3c-1.6-10.1-4.2-18.1-7.6-23.8-1.2-2-2.6-3.2-4.1-3.5-2.6-.6-14.7-.9-36.1-.9-6.7,0-11.3.1-13.8.2-6.1.3-9.7.5-10.9.5h-1.5c-3,0-5.2.4-6.5,1.2a9.79,9.79,0,0,0-.6,2.6v10.5c0,1.2,0,6.3.2,15.2l-.3,50.2a15.63,15.63,0,0,0,1.2,5.3c2.1,1.7,6,2.9,11.6,3.4a56.26,56.26,0,0,1,15.9,4c2.8,1.3,4.2,2.8,4.2,4.4a3.6,3.6,0,0,1-.6,2,3.72,3.72,0,0,1-2.1,1.4c-8.3-1.7-19.7-2.6-34.4-2.6a155.43,155.43,0,0,0-24.7,2.1,138.52,138.52,0,0,1-20.5,1.4Z" transform="translate(-48.16 -137.72)"/><path class="cls-46" d="M6023,600.61l.2-3.7c2.2-1.1,5.9-2.1,11.1-2.9s8.8-1.7,10.7-2.6a14.77,14.77,0,0,0,4.9-3.4c.9-4.5,1.4-12.5,1.4-24.2V445.71l.5-19.6c0-4.1-.8-6.8-2.4-8.4s-5.7-2.9-12.4-4.2-10.6-2.3-11.8-3.1a3.33,3.33,0,0,1-1.8-2.6,6.42,6.42,0,0,1,.5-2,7.79,7.79,0,0,1,4.1-1.2q2.25,0,9.3.3h4.2q2.1,0,12-.3h21.1l43.6-.8,46.1-1.8h4.1l6.5-.2a8.58,8.58,0,0,1,4.9,1.5,20.78,20.78,0,0,1,1.1,3.5l-.2,6.1,1.4,27.2a37.3,37.3,0,0,1-.3,4.2,11.36,11.36,0,0,1-4.4,1.1,2.58,2.58,0,0,1-2.1-.9c-.8-1.1-1.3-3.2-1.5-6.4-.4-4.3-2-10-4.7-16.8a11.6,11.6,0,0,0-6.5-6.7c-6.1-2.3-16.3-3.5-30.6-3.5-6.8,0-13.1.2-18.9.5s-9.4.5-10.8.5l-11.8-.2a30,30,0,0,0-12,2.1c-2.1.9-3.2,3.1-3.2,6.5v2.3c.3,5.2.5,10.9.5,17.2l-.5,41.3a70.57,70.57,0,0,0,.9,11.5l4.4.3,8.5-.5H6118c11.6,0,19.7-.8,24.2-2.4a13.68,13.68,0,0,0,6.8-5c.5-.7,1.8-4.7,3.8-12l2-12.6a6.91,6.91,0,0,1,2.7-.9,7.2,7.2,0,0,1,2.4.8,76.44,76.44,0,0,1,.8,10.6l1.8,55.9a11.7,11.7,0,0,1-3.9,1.1l-1.7-.3c-1.6-10.1-4.2-18.1-7.6-23.8-1.2-2-2.6-3.2-4.1-3.5-2.6-.6-14.7-.9-36.1-.9-6.7,0-11.3.1-13.8.2-6.1.3-9.7.5-10.9.5h-1.5c-3,0-5.2.4-6.5,1.2a9.79,9.79,0,0,0-.6,2.6v10.5c0,1.2,0,6.3.2,15.2l-.3,50.2a15.63,15.63,0,0,0,1.2,5.3c2.1,1.7,6,2.9,11.6,3.4a56.26,56.26,0,0,1,15.9,4c2.8,1.3,4.2,2.8,4.2,4.4a3.6,3.6,0,0,1-.6,2,3.72,3.72,0,0,1-2.1,1.4c-8.3-1.7-19.7-2.6-34.4-2.6a155.43,155.43,0,0,0-24.7,2.1,138.52,138.52,0,0,1-20.5,1.4Z" transform="translate(-48.16 -137.72)"/><path class="cls-46" d="M6276.1,593.51a23.41,23.41,0,0,1,6.8-1.7c15.5-1,24.3-2.9,26.6-5.5s3.3-15.7,3.3-39l-.2-15.9v-16.7l-.6-18.4.3-10.8-.2-11.8v-14l-.3-6.2.3-7.9c.1-1.8.2-3.9.2-6.4,0-6.4-.3-13.1-.9-20.2a20.87,20.87,0,0,0-1.7-4.1c-3.7-1.9-9.8-3.2-18.1-3.9s-13.1-1.4-14.2-2.2c-.8-.6-1.3-2.2-1.4-4.7h12.8l40.3.9c10.3,0,24.1-.3,41.3-.9a34.41,34.41,0,0,1-.3,4.6,94.62,94.62,0,0,1-10.2,1.7c-9.6,1.1-15.5,2.2-17.6,3.2a5.3,5.3,0,0,0-2.9,2.6q-1.5,2.7-1.8,10.2l-.8,19.6.6,67.6v26.6c-.2,8.4-.3,14.1-.3,17.2,0,11.3.3,18.6.8,21.7s1.5,5.4,2.9,6.8,3.6,2.5,6.8,3.3a61.8,61.8,0,0,0,10.9,1.8q8.55.3,10.8,2.4a15.58,15.58,0,0,1,.5,3.3v1.2c-9.2.3-16,.5-20.4.5-2.5,0-7-.2-13.5-.5l-21,.3-35.7-.2h-2.9Z" transform="translate(-48.16 -137.72)"/><path class="cls-46" d="M6464.5,412.71l-.2-7.3q23.55,0,34.5-1.2c2.8-.3,4.8-.5,5.9-.5.9,0,2.3.1,4.1.2a84.6,84.6,0,0,1,11.8,12.1q1.2,1.35,2.7,3l32,35.4,4.6,5.5c6.5,7.6,12.4,14.1,17.7,19.4s15.7,16.5,31,33.5l36.3,40.2c3.5,3.9,8.1,8.9,13.7,14.7l.2-2.4c-.6-14.1-.9-21.5-.9-22.3l.6-9.1-.3-14.3v-6.4c0-4.1-.4-16.9-1.1-38.4-.1-2.9-.5-8.5-1.2-16.6s-1.1-15.3-1.1-21.5c0-11.1-.7-17.6-2-19.4-.9-1.3-5.2-2.7-12.9-4.1-1.8-.1-4.7-.4-8.5-.9-4.6-.2-7.2-.5-8-.8a5.58,5.58,0,0,1-2.4-2.6,15.29,15.29,0,0,1,1.4-4.6,28.23,28.23,0,0,1,8-1.2,66.89,66.89,0,0,1,10.5,1.1,70.32,70.32,0,0,0,11.3,1.1c4.7,0,11.9-.3,21.7-.9,5.6-.4,9.4-.6,11.5-.6h2.6l-.3,4.7a20.81,20.81,0,0,1-6.7,1.3,38.34,38.34,0,0,0-7.9,1.3c-3.6,1.1-5.8,2.1-6.5,2.9-2.4,2.6-3.6,5.3-3.6,8l1.7,48,1.2,22-.2,6.4.9,30.5c.6,20.8.9,39,.9,54.3,0,3.3-.2,10.6-.6,21.7l-7.1.6c-3.5-4-15.7-16.8-36.6-38.2-4.9-5-8.1-8.4-9.9-10.5l-13.1-15c-5.1-5.6-8.4-9.1-9.9-10.6l-3.3-3.3c-11-12.5-25.4-28.2-43-47-4.8-5.1-11.7-13-21-23.7-5.8-6.8-9.4-10.9-10.9-12.4a66.68,66.68,0,0,0-6.2-5.2l-.5,5.2c0,19.7.5,47,1.5,81.7l1.1,50.2c.1,4.2.4,8.3.8,12.3l5.3,1.2c9.6.9,19.1,2.3,28.4,4.1a15.06,15.06,0,0,0,1.8,1.4l-.2,5.8a14.14,14.14,0,0,1-3.9.8,34.29,34.29,0,0,1-4.1-.3q-15-1.2-36.6-1.2c-10.1,0-19,.3-26.7.8l-2.1.2a36.06,36.06,0,0,1-3.9-.3l-.2-4.6,3.9-1.8,7.1-1.1a73.22,73.22,0,0,0,14-3,11.26,11.26,0,0,0,4.7-3.2c1.1-7,1.7-17.2,1.7-30.7,0-6.3-.2-17.8-.5-34.5V502l-.3-43.1c-.2-19.2-.9-30.6-2-34a10.76,10.76,0,0,0-3.8-4.9c-3.8-2.7-8.9-4.5-15.1-5.2C6470.4,413.81,6466.4,413.21,6464.5,412.71Z" transform="translate(-48.16 -137.72)"/><path class="cls-46" d="M6983.4,414.11l1.7,23.1c.6,7,.9,11.7.9,14.3l-4.2.8c-6.8-15.4-15.2-26.9-25.3-34.6s-22.4-11.5-37-11.5c-17.8,0-31.7,2.2-41.6,6.5q-21.6,9.3-36.9,32.2t-15.3,55.2a95.28,95.28,0,0,0,5.6,33.5,100,100,0,0,0,15.9,27.7,104.58,104.58,0,0,0,24.2,22.2,66,66,0,0,0,21.7,9.4c4.8,1.1,11.8,1.7,21.2,1.7a91,91,0,0,0,20.2-2.6c7.4-1.7,13-4,16.7-6.9a22.87,22.87,0,0,0,7.7-9.8c1.4-3.7,2-10.7,2-21.2,0-17.5-1.2-27.7-3.5-30.6s-9.7-4.8-22-5.7l-6.1-.5-4.1.2c-.6-.1-1.4-.3-2.4-.5l-2.3-3.8a3.65,3.65,0,0,1,1.1-2c5.3-.8,16.7-1.2,34.3-1.2,3.9,0,10.4.1,19.3.3l15.6.6,14.1-.2q4.05,0,9.9.3a2.72,2.72,0,0,1,1.4.5,2.27,2.27,0,0,1,.3,1.3,15.92,15.92,0,0,1-.8,4.2,51.2,51.2,0,0,1-9.9,1.4l-9.9-.2a10.16,10.16,0,0,0-8,3.5q-1.5,1.65-1.5,11.4l.2,19.9c0,13.7-.6,22.4-1.7,26.1a13,13,0,0,1-3.8,6c-1.9,1.8-6,3.9-12.1,6.3a119,119,0,0,1-24,7.1,229,229,0,0,1-38.7,3.5c-20,0-36.5-2.6-49.3-7.7a99.19,99.19,0,0,1-33.1-21.3q-13.95-13.65-19.8-27.6a103.06,103.06,0,0,1-9-41.7q0-26.55,14-52t45.3-41.4q22.05-11.25,59.8-11.2c17.4,0,31.6,1.5,42.7,4.6S6976.9,410.21,6983.4,414.11Z" transform="translate(-48.16 -137.72)"/><text class="cls-47" transform="translate(832.89 458.28)">RADICA<tspan class="cls-48" x="1600.05" y="0">L</tspan><tspan x="1847.17" y="0" xml:space="preserve"> CLINICA</tspan><tspan class="cls-48" x="3738.72" y="0">L</tspan><tspan x="3985.84" y="0"> </tspan></text></svg>